<svg width="150" height="150" viewBox="0 0 293 293" fill="none" xmlns="http://www.w3.org/2000/svg">
<path d="M45.1221 58.6C45.1221 58.6 32.8161 65.632 31.0581 83.212C29.3001 100.792 48.6381 125.404 51.5681 147.672C54.4981 169.94 31.0581 175.214 40.4341 203.342C49.8101 231.47 99.0341 237.916 125.404 226.782C151.774 215.648 164.08 187.52 203.342 187.52C242.604 187.52 270.732 169.354 268.388 128.92C266.044 88.486 257.254 76.18 225.61 52.74C193.966 29.3 83.7981 18.752 45.1221 58.6Z" fill="#92E3A9"/>
<path opacity="0.7" d="M45.1221 58.6C45.1221 58.6 32.8161 65.632 31.0581 83.212C29.3001 100.792 48.6381 125.404 51.5681 147.672C54.4981 169.94 31.0581 175.214 40.4341 203.342C49.8101 231.47 99.0341 237.916 125.404 226.782C151.774 215.648 164.08 187.52 203.342 187.52C242.604 187.52 270.732 169.354 268.388 128.92C266.044 88.486 257.254 76.18 225.61 52.74C193.966 29.3 83.7981 18.752 45.1221 58.6Z" fill="white"/>
<path d="M235.924 46.0127H54.0763C50.9111 46.0127 48.3452 48.5786 48.3452 51.7438V180.113C48.3452 183.278 50.9111 185.844 54.0763 185.844H235.924C239.089 185.844 241.655 183.278 241.655 180.113V51.7438C241.655 48.5786 239.089 46.0127 235.924 46.0127Z" fill="#92E3A9" stroke="#0E314C" stroke-width="1.50103" stroke-miterlimit="10"/>
<path d="M238.034 59.4438H51.9609V177.271H238.034V59.4438Z" fill="white" stroke="#0E314C" stroke-width="1.50103" stroke-miterlimit="10"/>
<path d="M61.6943 152.337H117.054" stroke="#0E314C" stroke-linecap="round" stroke-linejoin="round"/>
<path d="M70.8594 157.833H117.054" stroke="#0E314C" stroke-linecap="round" stroke-linejoin="round"/>
<path d="M61.6943 157.833H66.0893" stroke="#0E314C" stroke-linecap="round" stroke-linejoin="round"/>
<path d="M61.6943 163.33H117.054" stroke="#0E314C" stroke-linecap="round" stroke-linejoin="round"/>
<path d="M113.016 168.832H117.054" stroke="#0E314C" stroke-linecap="round" stroke-linejoin="round"/>
<path d="M61.6943 168.832H108.252" stroke="#0E314C" stroke-linecap="round" stroke-linejoin="round"/>
<path d="M190.368 69.0776H63.2357C61.3942 69.0776 59.9014 70.5705 59.9014 72.412V108.773C59.9014 110.615 61.3942 112.108 63.2357 112.108H190.368C192.21 112.108 193.703 110.615 193.703 108.773V72.412C193.703 70.5705 192.21 69.0776 190.368 69.0776Z" fill="#0E314C"/>
<path d="M190.374 69.3707C190.773 69.3707 191.168 69.4494 191.537 69.6023C191.905 69.7552 192.24 69.9793 192.522 70.2618C192.804 70.5443 193.028 70.8796 193.18 71.2486C193.332 71.6175 193.41 72.0129 193.409 72.412V108.773C193.41 109.172 193.332 109.568 193.18 109.937C193.028 110.306 192.804 110.641 192.522 110.924C192.24 111.206 191.905 111.43 191.537 111.583C191.168 111.736 190.773 111.815 190.374 111.815H63.2118C62.4052 111.815 61.6316 111.494 61.0613 110.924C60.4909 110.354 60.1705 109.58 60.1705 108.773V72.412C60.1705 71.6054 60.4909 70.8318 61.0613 70.2615C61.6316 69.6911 62.4052 69.3707 63.2118 69.3707H190.374ZM190.374 68.7847H63.2118C62.2503 68.7862 61.3285 69.1689 60.6486 69.8488C59.9687 70.5287 59.586 71.4505 59.5845 72.412V108.773C59.586 109.735 59.9687 110.657 60.6486 111.337C61.3285 112.016 62.2503 112.399 63.2118 112.401H190.374C191.335 112.399 192.256 112.016 192.935 111.336C193.614 110.656 193.995 109.734 193.995 108.773V72.412C193.995 71.451 193.614 70.5293 192.935 69.8492C192.256 69.1691 191.335 68.7862 190.374 68.7847Z" fill="#0E314C"/>
<path d="M166.67 69.3706C166.01 70.0607 165.216 70.6099 164.337 70.985C163.458 71.3602 162.513 71.5536 161.557 71.5536C160.602 71.5536 159.656 71.3602 158.778 70.985C157.899 70.6099 157.105 70.0607 156.445 69.3706H153.386L153.468 69.5112L152.36 70.6364C152.155 70.8438 152.04 71.1239 152.04 71.4157C152.04 71.7076 152.155 71.9877 152.36 72.1951L153.819 73.6543C153.921 73.7574 154.043 73.8393 154.176 73.8951C154.31 73.951 154.454 73.9798 154.599 73.9798C154.744 73.9798 154.887 73.951 155.021 73.8951C155.155 73.8393 155.276 73.7574 155.378 73.6543L156.503 72.5291C157.404 73.099 158.394 73.5112 159.433 73.748V75.342C159.433 75.6341 159.549 75.9144 159.756 76.121C159.962 76.3276 160.243 76.4436 160.535 76.4436H162.598C162.89 76.4436 163.17 76.3276 163.377 76.121C163.583 75.9144 163.699 75.6341 163.699 75.342V73.748C164.738 73.5112 165.729 73.099 166.629 72.5291L167.754 73.6543C167.856 73.7574 167.978 73.8393 168.111 73.8951C168.245 73.951 168.389 73.9798 168.534 73.9798C168.679 73.9798 168.822 73.951 168.956 73.8951C169.09 73.8393 169.211 73.7574 169.313 73.6543L170.772 72.1951C170.978 71.9877 171.093 71.7076 171.093 71.4157C171.093 71.1239 170.978 70.8438 170.772 70.6364L169.647 69.5112L169.729 69.3706H166.67Z" fill="#92E3A9"/>
<path d="M114.481 111.27H112.887C112.65 110.231 112.238 109.24 111.668 108.34L112.793 107.214C112.896 107.113 112.978 106.991 113.034 106.857C113.09 106.724 113.119 106.58 113.119 106.435C113.119 106.29 113.09 106.147 113.034 106.013C112.978 105.879 112.896 105.758 112.793 105.656L111.34 104.185C111.238 104.082 111.116 104 110.981 103.944C110.847 103.888 110.703 103.859 110.558 103.859C110.412 103.859 110.268 103.888 110.134 103.944C110 104 109.878 104.082 109.775 104.185L108.65 105.31C107.75 104.741 106.759 104.329 105.72 104.091V102.497C105.719 102.204 105.601 101.924 105.394 101.718C105.186 101.511 104.905 101.396 104.613 101.396H102.55C102.257 101.396 101.976 101.511 101.769 101.718C101.561 101.924 101.444 102.204 101.442 102.497V104.091C100.404 104.329 99.4131 104.741 98.5124 105.31L97.3873 104.185C97.2854 104.082 97.164 104 97.0303 103.944C96.8965 103.888 96.7529 103.859 96.6079 103.859C96.463 103.859 96.3194 103.888 96.1856 103.944C96.0518 104 95.9305 104.082 95.8286 104.185L94.346 105.644C94.2429 105.746 94.161 105.867 94.1051 106.001C94.0493 106.135 94.0205 106.278 94.0205 106.423C94.0205 106.568 94.0493 106.712 94.1051 106.846C94.161 106.979 94.2429 107.101 94.346 107.203L95.4711 108.328C94.9013 109.228 94.4891 110.219 94.2522 111.258H92.6583C92.4669 111.257 92.2788 111.308 92.1131 111.403C91.9474 111.499 91.81 111.637 91.7148 111.803H96.6314C96.9901 110.233 97.871 108.832 99.1299 107.829C100.389 106.825 101.951 106.279 103.561 106.279C105.171 106.279 106.733 106.825 107.992 107.829C109.251 108.832 110.132 110.233 110.49 111.803H115.442C115.344 111.636 115.203 111.499 115.034 111.405C114.865 111.312 114.674 111.265 114.481 111.27Z" fill="#92E3A9"/>
<path d="M61.8293 98.6062H63.8744C64.1682 98.6062 64.4499 98.4895 64.6576 98.2818C64.8653 98.0741 64.982 97.7924 64.982 97.4987V95.9106C66.0206 95.6731 67.0113 95.2609 67.912 94.6917L69.0371 95.8168C69.139 95.92 69.2604 96.0018 69.3941 96.0577C69.5279 96.1136 69.6715 96.1423 69.8165 96.1423C69.9614 96.1423 70.105 96.1136 70.2388 96.0577C70.3726 96.0018 70.4939 95.92 70.5958 95.8168L72.0784 94.346C72.1815 94.2441 72.2634 94.1227 72.3193 93.9889C72.3751 93.8551 72.4039 93.7116 72.4039 93.5666C72.4039 93.4216 72.3751 93.2781 72.3193 93.1443C72.2634 93.0105 72.1815 92.8891 72.0784 92.7872L70.9533 91.6621C71.5231 90.7618 71.9353 89.7709 72.1722 88.7321H73.7661C74.0583 88.7321 74.3385 88.616 74.5451 88.4094C74.7517 88.2028 74.8678 87.9226 74.8678 87.6304V85.556C74.8678 85.2638 74.7517 84.9836 74.5451 84.777C74.3385 84.5704 74.0583 84.4543 73.7661 84.4543H72.1722C71.9331 83.4162 71.521 82.4257 70.9533 81.5243L72.0784 80.3992C72.1815 80.2973 72.2634 80.1759 72.3193 80.0421C72.3751 79.9083 72.4039 79.7648 72.4039 79.6198C72.4039 79.4748 72.3751 79.3313 72.3193 79.1975C72.2634 79.0637 72.1815 78.9423 72.0784 78.8404L70.6193 77.3813C70.4119 77.1759 70.1318 77.0606 69.8399 77.0606C69.548 77.0606 69.2679 77.1759 69.0605 77.3813L67.9354 78.524C67.0332 77.959 66.0429 77.549 65.0054 77.311V75.717C65.007 75.5686 64.9788 75.4214 64.9223 75.2841C64.8659 75.1468 64.7825 75.0223 64.677 74.9179C64.5715 74.8134 64.4461 74.7313 64.3082 74.6763C64.1703 74.6213 64.0228 74.5946 63.8744 74.5978H61.8117C61.5195 74.5978 61.2393 74.7139 61.0327 74.9205C60.8261 75.1271 60.71 75.4073 60.71 75.6995V77.2934C60.5284 77.3344 60.3526 77.3871 60.1768 77.4399V80.0124C60.7978 79.7553 61.4533 79.5914 62.1223 79.526C63.2002 79.4066 64.2912 79.5353 65.3117 79.9021C66.3323 80.2689 67.2556 80.8642 68.0108 81.6425C68.7661 82.4208 69.3335 83.3614 69.6695 84.3926C70.0055 85.4237 70.1013 86.518 69.9497 87.5919C69.798 88.6657 69.4027 89.6907 68.7942 90.5884C68.1857 91.4861 67.38 92.2328 66.4387 92.7715C65.4974 93.3101 64.4454 93.6264 63.3632 93.6961C62.2809 93.7659 61.197 93.5873 60.1943 93.174V95.7524C60.3701 95.8051 60.5459 95.8579 60.7276 95.8989V97.4869C60.726 97.6329 60.7534 97.7777 60.808 97.913C60.8626 98.0484 60.9434 98.1716 61.0458 98.2756C61.1481 98.3796 61.2701 98.4624 61.4045 98.5191C61.539 98.5758 61.6833 98.6054 61.8293 98.6062Z" fill="#92E3A9"/>
<path d="M202.674 49.6517H110.227V55.3125H202.674V49.6517Z" fill="white" stroke="#0E314C" stroke-width="1.50103" stroke-miterlimit="10"/>
<path d="M56.4378 48.7493L53.7715 51.3159L56.5374 54.2811" stroke="#0E314C" stroke-width="1.50103" stroke-linecap="round" stroke-linejoin="round"/>
<path d="M53.7715 51.316H59.6959" stroke="#0E314C" stroke-width="1.50103" stroke-linecap="round" stroke-linejoin="round"/>
<path d="M71.5508 48.7493L74.223 51.3159L71.4512 54.2811" stroke="#0E314C" stroke-width="1.50103" stroke-linecap="round" stroke-linejoin="round"/>
<path d="M74.2169 51.316H68.2925" stroke="#0E314C" stroke-width="1.50103" stroke-linecap="round" stroke-linejoin="round"/>
<path d="M86.957 50.9819C86.7863 50.3862 86.4312 49.86 85.9426 49.4789C85.454 49.0977 84.8572 48.8812 84.2379 48.8606C83.8106 48.8603 83.3894 48.9628 83.0099 49.1593C82.6304 49.3559 82.3037 49.6408 82.0574 49.99C81.811 50.3392 81.6522 50.7425 81.5944 51.166C81.5365 51.5894 81.5813 52.0206 81.7249 52.4231C81.8686 52.8256 82.1069 53.1877 82.4198 53.4788C82.7326 53.77 83.1109 53.9816 83.5227 54.096C83.9345 54.2103 84.3677 54.224 84.7859 54.1359C85.2041 54.0478 85.595 53.8604 85.9256 53.5896" stroke="#0E314C" stroke-width="1.50103" stroke-linecap="round" stroke-linejoin="round"/>
<path d="M85.1577 51.2691H87.2322V48.802" stroke="#0E314C" stroke-width="1.50103" stroke-linecap="round" stroke-linejoin="round"/>
<path d="M101.085 50.396L98.6238 48.4036L96.2798 50.396V54.7324H101.085V50.396Z" stroke="#0E314C" stroke-width="1.50103" stroke-linecap="round" stroke-linejoin="round"/>
<path d="M99.5617 51.568H97.6865V54.5742H99.5617V51.568Z" fill="#0E314C"/>
<path d="M96.2799 50.396L94.8735 51.6852" stroke="#0E314C" stroke-width="1.50103" stroke-linecap="round" stroke-linejoin="round"/>
<path d="M101.085 50.396L102.41 51.5739" stroke="#0E314C" stroke-width="1.50103" stroke-linecap="round" stroke-linejoin="round"/>
<path d="M228.235 50.689H235.648" stroke="#0E314C" stroke-width="1.50103" stroke-linecap="round" stroke-linejoin="round"/>
<path d="M228.235 52.3591H235.648" stroke="#0E314C" stroke-width="1.50103" stroke-linecap="round" stroke-linejoin="round"/>
<path d="M228.235 54.035H235.648" stroke="#0E314C" stroke-width="1.50103" stroke-linecap="round" stroke-linejoin="round"/>
<path d="M228.235 55.7051H235.648" stroke="#0E314C" stroke-width="1.50103" stroke-linecap="round" stroke-linejoin="round"/>
<g style="mix-blend-mode:multiply">
<path d="M241.655 84.2726H120.939C120.353 84.2726 119.773 84.3879 119.232 84.612C118.691 84.8362 118.2 85.1646 117.786 85.5787C117.372 85.9928 117.043 86.4844 116.819 87.0255C116.595 87.5665 116.479 88.1464 116.479 88.732V122.257C116.479 122.843 116.595 123.423 116.819 123.964C117.043 124.505 117.372 124.996 117.786 125.41C118.2 125.825 118.691 126.153 119.232 126.377C119.773 126.601 120.353 126.717 120.939 126.717H241.655V84.2726Z" fill="#92E3A9"/>
</g>
<path d="M234.212 168.674C234.007 161.056 234.599 147.994 227.895 142.627C222.035 137.939 217.429 144.308 215.777 149.465C211.769 161.988 213.656 175.806 213.661 188.727C213.661 188.921 213.661 189.12 213.661 189.313C213.345 198.818 212.202 209.114 213.24 218.613C213.24 218.613 212.22 209.108 204.748 213.181C197.277 217.254 208.487 238.654 208.487 238.654C208.487 238.654 199.656 232.208 195.595 237.635C191.534 243.061 200.687 249.179 200.687 249.179C200.687 249.179 192.196 246.806 192.196 249.179C192.196 251.552 194.915 253.597 202.744 254.611H244.854C244.854 254.611 251.646 250.878 250.286 246.806C248.927 242.733 241.795 245.106 241.795 245.106C241.795 245.106 252.666 231.863 251.986 226.085C251.306 220.307 237.33 227.081 237.33 227.081C237.33 227.081 248.194 199.574 246.161 187.35C244.555 177.722 237.078 184.309 233.011 188.012C233.973 181.614 234.375 175.143 234.212 168.674Z" fill="#92E3A9"/>
<path opacity="0.5" d="M234.212 168.674C234.007 161.056 234.599 147.994 227.895 142.627C222.035 137.939 217.429 144.308 215.777 149.465C211.769 161.988 213.656 175.806 213.661 188.727C213.661 188.921 213.661 189.12 213.661 189.313C213.345 198.818 212.202 209.114 213.24 218.613C213.24 218.613 212.22 209.108 204.748 213.181C197.277 217.254 208.487 238.654 208.487 238.654C208.487 238.654 199.656 232.208 195.595 237.635C191.534 243.061 200.687 249.179 200.687 249.179C200.687 249.179 192.196 246.806 192.196 249.179C192.196 251.552 194.915 253.597 202.744 254.611H244.854C244.854 254.611 251.646 250.878 250.286 246.806C248.927 242.733 241.795 245.106 241.795 245.106C241.795 245.106 252.666 231.863 251.986 226.085C251.306 220.307 237.33 227.081 237.33 227.081C237.33 227.081 248.194 199.574 246.161 187.35C244.555 177.722 237.078 184.309 233.011 188.012C233.973 181.614 234.375 175.143 234.212 168.674Z" fill="white"/>
<path d="M220.705 254.248L223.764 160.863" stroke="white" stroke-width="1.72695" stroke-linecap="round" stroke-linejoin="round"/>
<path d="M222.405 215.197L238.367 200.254" stroke="white" stroke-width="1.72695" stroke-linecap="round" stroke-linejoin="round"/>
<path d="M229.876 208.405L233.269 198.894" stroke="white" stroke-width="1.72695" stroke-linecap="round" stroke-linejoin="round"/>
<path d="M209.161 226.741L221.385 239.985" stroke="white" stroke-width="1.72695" stroke-linecap="round" stroke-linejoin="round"/>
<path d="M241.76 234.213L221.385 244.743" stroke="white" stroke-width="1.72695" stroke-linecap="round" stroke-linejoin="round"/>
<path d="M230.896 240.324L238.367 239.985" stroke="white" stroke-width="1.72695" stroke-linecap="round" stroke-linejoin="round"/>
<path d="M155.689 262.604C212.393 262.604 258.362 260.251 258.362 257.348C258.362 254.445 212.393 252.091 155.689 252.091C98.9839 252.091 53.0156 254.445 53.0156 257.348C53.0156 260.251 98.9839 262.604 155.689 262.604Z" fill="#92E3A9"/>
<path opacity="0.3" d="M155.689 262.604C212.393 262.604 258.362 260.251 258.362 257.348C258.362 254.445 212.393 252.091 155.689 252.091C98.9839 252.091 53.0156 254.445 53.0156 257.348C53.0156 260.251 98.9839 262.604 155.689 262.604Z" fill="white"/>
<path d="M158.877 253.738C158.392 253.744 157.915 253.867 157.488 254.096C156.755 254.482 153.591 255.35 151.552 256.07C148.37 257.201 145.885 256.592 146.143 257.424C146.401 258.256 151.364 259.926 154.236 259.967C157.107 260.008 158.49 259.293 159.861 259.323C161.232 259.352 160.224 260.014 162.51 260.272C164.795 260.53 165.54 260.536 166.336 259.288C167.133 258.039 167.585 257.717 167.333 256.135V256.082C167.205 255.402 166.841 254.788 166.305 254.351C165.769 253.913 165.095 253.679 164.403 253.691L158.877 253.738Z" fill="#0E314C"/>
<path d="M176.662 252.214C176.236 252.204 175.817 252.322 175.46 252.554C174.833 252.947 172.108 253.773 170.356 254.482C167.62 255.596 165.44 254.851 165.668 255.754C165.897 256.656 168.85 257.887 171.353 258.028C172.706 258.112 174.064 258.061 175.408 257.875C178.115 257.723 176.392 258.684 177.365 259.076C178.045 259.292 178.756 259.393 179.469 259.375C182.322 259.528 182.668 259.756 183.325 258.438C183.981 257.119 184.356 256.791 184.08 255.08V255.027C183.828 253.51 182.697 252.39 181.455 252.355L176.662 252.214Z" fill="#0E314C"/>
<path d="M151.118 162.967C151.118 162.967 151.61 180.195 151.61 185.979C151.61 191.763 153.087 217.904 155.056 227.38C157.025 236.855 158.132 250.392 158.132 251.869C158.132 253.345 157.64 253.715 158.624 254.699C159.609 255.684 163.312 257.53 164.66 256.914C166.008 256.299 166.752 253.984 166.752 253.984C166.752 253.984 166.752 241.186 167.121 232.818C167.491 224.45 166.875 213.48 166.875 213.48C166.875 213.48 171.675 235.637 173.028 240.067C174.382 244.497 175.489 252.531 175.736 254.131C175.982 255.73 177.06 255.783 178.437 255.783C180.09 255.783 182.135 255.572 182.873 254.342C183.611 253.111 182.012 240.19 182.012 235.004C182.012 229.818 177.951 197.787 178.32 189.882C178.689 181.977 181.027 168.346 180.289 164.285C179.85 161.896 179.603 159.476 179.55 157.048C179.55 157.048 154.194 154.118 151.118 162.967Z" fill="#0E314C" stroke="#0E314C" stroke-miterlimit="10"/>
<path d="M152.601 164.9C153.011 166.429 153.544 167.923 154.195 169.366C154.665 170.362 155.441 171.183 156.41 171.71" stroke="white" stroke-miterlimit="10"/>
<path d="M160.564 250.468C160.687 252.206 160.654 253.952 160.464 255.684" stroke="white" stroke-miterlimit="10"/>
<path d="M156.902 182.768C157.248 196.164 157.904 218.953 158.502 224.426C159.17 230.491 159.762 239.774 160.166 245.405" stroke="white" stroke-miterlimit="10"/>
<path d="M156.368 165.088C156.245 165.457 156.655 172.811 156.655 172.811C156.655 172.811 156.714 175.296 156.814 179.187" stroke="white" stroke-miterlimit="10"/>
<path d="M122.322 116.532C122.322 116.532 122.199 113.602 122.814 114.317C123.43 115.032 123.553 116.409 123.799 117.763C123.799 117.763 124.168 115.178 124.537 115.917C124.939 116.838 125.067 117.855 124.906 118.847C124.829 120.253 125.126 121.654 125.768 122.908C126.26 123.646 123.183 121.578 122.322 116.532Z" fill="white" stroke="#0E314C" stroke-miterlimit="10"/>
<path d="M214.945 120.388C214.945 120.388 216.703 118.009 215.777 118.278C214.851 118.548 214.019 119.603 213.035 120.587C213.035 120.587 214.172 118.243 213.451 118.642C212.596 119.186 211.917 119.965 211.494 120.886C210.774 122.095 209.744 123.091 208.511 123.769C207.691 124.109 211.412 124.091 214.945 120.388Z" fill="white" stroke="#0E314C" stroke-linecap="round" stroke-linejoin="round"/>
<path d="M216.82 81.0849V79.6023C216.821 79.4979 216.801 79.3944 216.762 79.2977C216.722 79.2011 216.664 79.1132 216.591 79.0391C216.517 78.965 216.43 78.9062 216.333 78.8661C216.237 78.826 216.133 78.8053 216.029 78.8053H214.857C214.686 78.0563 214.391 77.3412 213.984 76.6899L214.793 75.8812C214.942 75.7318 215.025 75.5295 215.025 75.3186C215.025 75.1077 214.942 74.9054 214.793 74.7561L213.744 73.7071C213.594 73.5583 213.392 73.4747 213.181 73.4747C212.97 73.4747 212.768 73.5583 212.619 73.7071L211.81 74.5158C211.158 74.1061 210.44 73.8108 209.689 73.6427V72.4707C209.689 72.3663 209.669 72.2628 209.63 72.1661C209.591 72.0695 209.532 71.9816 209.459 71.9075C209.385 71.8334 209.298 71.7746 209.202 71.7345C209.105 71.6944 209.002 71.6737 208.897 71.6737H207.444C207.234 71.6753 207.033 71.7599 206.884 71.9092C206.736 72.0585 206.653 72.2603 206.653 72.4707V73.6427C205.903 73.8096 205.187 74.105 204.538 74.5158L203.723 73.7071C203.65 73.6336 203.562 73.5753 203.466 73.5355C203.37 73.4957 203.267 73.4752 203.163 73.4752C203.06 73.4752 202.957 73.4957 202.861 73.5355C202.765 73.5753 202.677 73.6336 202.604 73.7071L201.584 74.7561C201.435 74.9054 201.352 75.1077 201.352 75.3186C201.352 75.5295 201.435 75.7318 201.584 75.8812L202.393 76.6899C201.984 77.3409 201.687 78.056 201.514 78.8053H200.371C200.16 78.8053 199.957 78.8893 199.808 79.0388C199.658 79.1882 199.574 79.3909 199.574 79.6023V81.0849C199.574 81.1895 199.595 81.2932 199.635 81.3898C199.675 81.4865 199.734 81.5744 199.808 81.6484C199.882 81.7224 199.969 81.7811 200.066 81.8212C200.163 81.8612 200.267 81.8818 200.371 81.8818H201.514C201.687 82.6311 201.984 83.3462 202.393 83.9973L201.584 84.806C201.435 84.9553 201.352 85.1576 201.352 85.3685C201.352 85.5794 201.435 85.7817 201.584 85.9311L202.633 86.98C202.707 87.0536 202.794 87.1119 202.89 87.1517C202.986 87.1915 203.089 87.212 203.193 87.212C203.297 87.212 203.4 87.1915 203.496 87.1517C203.592 87.1119 203.679 87.0536 203.752 86.98L204.567 86.1713C205.217 86.5815 205.933 86.8787 206.682 87.0503V88.193C206.682 88.4034 206.766 88.6052 206.914 88.7545C207.062 88.9038 207.263 88.9885 207.473 88.99H208.962C209.066 88.99 209.17 88.9694 209.266 88.9292C209.362 88.8891 209.45 88.8303 209.523 88.7562C209.597 88.6821 209.655 88.5942 209.695 88.4976C209.734 88.4009 209.754 88.2974 209.753 88.193V87.0503C210.504 86.8776 211.221 86.5805 211.874 86.1713L212.683 86.98C212.832 87.1289 213.035 87.2125 213.246 87.2125C213.456 87.2125 213.659 87.1289 213.808 86.98L214.857 85.9311C215.006 85.7817 215.09 85.5794 215.09 85.3685C215.09 85.1576 215.006 84.9553 214.857 84.806L214.048 83.9973C214.456 83.3459 214.751 82.6308 214.922 81.8818H216.094C216.293 81.8655 216.479 81.7742 216.614 81.6264C216.749 81.4785 216.822 81.285 216.82 81.0849ZM208.522 83.7219C207.824 83.7956 207.12 83.6512 206.507 83.3083C205.894 82.9655 205.402 82.4411 205.099 81.8073C204.796 81.1735 204.697 80.4615 204.815 79.7691C204.934 79.0767 205.264 78.438 205.76 77.9409C206.256 77.4437 206.894 77.1125 207.586 76.9928C208.278 76.8731 208.991 76.9708 209.625 77.2724C210.259 77.574 210.785 78.0648 211.129 78.6772C211.473 79.2896 211.619 79.9936 211.546 80.6922C211.467 81.466 211.125 82.1891 210.577 82.7406C210.029 83.2921 209.307 83.6386 208.534 83.7219H208.522Z" fill="white" stroke="#0E314C" stroke-linecap="round" stroke-linejoin="round"/>
<path d="M145.51 122.158V120.669C145.51 120.565 145.489 120.461 145.449 120.365C145.409 120.269 145.35 120.181 145.276 120.108C145.202 120.034 145.114 119.976 145.017 119.937C144.921 119.897 144.817 119.877 144.713 119.878H143.541C143.378 119.138 143.091 118.43 142.691 117.786L143.5 116.972C143.573 116.898 143.632 116.811 143.671 116.715C143.711 116.619 143.732 116.516 143.732 116.412C143.732 116.308 143.711 116.205 143.671 116.109C143.632 116.013 143.573 115.926 143.5 115.852L142.451 114.797C142.301 114.649 142.099 114.565 141.888 114.565C141.677 114.565 141.475 114.649 141.326 114.797L140.517 115.612C139.866 115.203 139.151 114.906 138.401 114.733V113.561C138.4 113.351 138.315 113.149 138.166 113.001C138.017 112.853 137.815 112.77 137.605 112.77H136.122C135.912 112.77 135.71 112.853 135.56 113.001C135.411 113.149 135.327 113.351 135.325 113.561V114.733C134.576 114.906 133.861 115.203 133.21 115.612L132.401 114.797C132.251 114.649 132.049 114.565 131.838 114.565C131.627 114.565 131.425 114.649 131.276 114.797L130.227 115.852C130.153 115.926 130.095 116.013 130.055 116.109C130.015 116.205 129.995 116.308 129.995 116.412C129.995 116.516 130.015 116.619 130.055 116.715C130.095 116.811 130.153 116.898 130.227 116.972L131.035 117.786C130.625 118.437 130.328 119.152 130.156 119.902H128.984C128.88 119.901 128.777 119.921 128.68 119.96C128.583 119.999 128.495 120.058 128.421 120.131C128.347 120.205 128.288 120.292 128.248 120.389C128.208 120.485 128.187 120.588 128.188 120.693V122.181C128.187 122.285 128.208 122.389 128.248 122.485C128.288 122.582 128.347 122.669 128.421 122.743C128.495 122.816 128.583 122.874 128.68 122.914C128.777 122.953 128.88 122.973 128.984 122.972H130.156C130.329 123.723 130.626 124.44 131.035 125.093L130.227 125.902C130.078 126.052 129.994 126.254 129.994 126.465C129.994 126.676 130.078 126.878 130.227 127.027L131.276 128.076C131.425 128.225 131.627 128.309 131.838 128.309C132.049 128.309 132.251 128.225 132.401 128.076L133.21 127.262C133.861 127.671 134.576 127.968 135.325 128.141V129.313C135.325 129.417 135.346 129.52 135.386 129.617C135.426 129.713 135.485 129.801 135.559 129.874C135.633 129.948 135.721 130.006 135.817 130.045C135.914 130.085 136.018 130.105 136.122 130.104H137.605C137.709 130.105 137.812 130.085 137.909 130.045C138.006 130.006 138.094 129.948 138.168 129.874C138.242 129.801 138.301 129.713 138.341 129.617C138.381 129.52 138.401 129.417 138.401 129.313V128.141C139.151 127.968 139.866 127.671 140.517 127.262L141.326 128.076C141.475 128.225 141.677 128.309 141.888 128.309C142.099 128.309 142.301 128.225 142.451 128.076L143.5 127.027C143.649 126.878 143.732 126.676 143.732 126.465C143.732 126.254 143.649 126.052 143.5 125.902L142.691 125.093C143.101 124.441 143.396 123.724 143.564 122.972H144.736C144.841 122.97 144.943 122.947 145.039 122.905C145.134 122.862 145.221 122.802 145.293 122.726C145.364 122.65 145.421 122.561 145.458 122.464C145.495 122.366 145.513 122.262 145.51 122.158ZM137.224 124.906C136.501 124.982 135.773 124.832 135.139 124.478C134.505 124.123 133.996 123.58 133.683 122.925C133.37 122.269 133.267 121.533 133.39 120.816C133.512 120.1 133.854 119.44 134.367 118.925C134.88 118.411 135.54 118.069 136.256 117.945C136.972 117.821 137.709 117.922 138.365 118.234C139.021 118.546 139.565 119.053 139.921 119.687C140.277 120.32 140.428 121.048 140.353 121.771C140.27 122.573 139.914 123.322 139.344 123.893C138.774 124.464 138.026 124.822 137.224 124.906Z" fill="white" stroke="#0E314C" stroke-linecap="round" stroke-linejoin="round"/>
<path d="M247.995 79.6667H123.699C121.236 79.6667 119.239 81.6633 119.239 84.1262V117.651C119.239 120.114 121.236 122.111 123.699 122.111H247.995C250.458 122.111 252.455 120.114 252.455 117.651V84.1262C252.455 81.6633 250.458 79.6667 247.995 79.6667Z" fill="white" stroke="#0E314C" stroke-linecap="round" stroke-linejoin="round"/>
<path d="M248.3 90.8242H128.053" stroke="#0E314C" stroke-linecap="round" stroke-linejoin="round"/>
<path d="M248.3 100.124H128.053" stroke="#0E314C" stroke-linecap="round" stroke-linejoin="round"/>
<path d="M248.3 109.424H128.053" stroke="#0E314C" stroke-linecap="round" stroke-linejoin="round"/>
<path d="M131.423 129.324C131.423 129.324 129.975 128.088 129.799 127.566C129.639 126.741 129.401 125.933 129.09 125.152C128.586 124.056 126.746 123.078 126.16 121.777C125.574 120.476 124.795 118.196 124.402 117.757C124.01 117.317 123.43 117.516 123.23 118.747C123.031 119.978 125.334 122.996 125.481 123.435C125.627 123.875 123.072 123.113 121.431 122.058C119.79 121.003 118.783 118.806 117.792 117.411C116.802 116.016 115.993 116.995 116.034 117.798C116.075 118.601 119.023 123.13 119.591 124.783C120.16 126.435 122.052 128.211 123.107 129.113C124.162 130.016 126.477 130.379 126.477 130.379L128.03 131.926L131.423 129.324Z" fill="white" stroke="#0E314C" stroke-miterlimit="10"/>
<path d="M126.998 135.729L124.906 131.176C125.318 130.582 125.847 130.079 126.461 129.698C127.074 129.317 127.76 129.066 128.475 128.961C131.059 128.469 131.405 128.961 131.405 128.961L132.759 133.649C132.759 133.649 128.334 134.007 126.998 135.729Z" fill="#92E3A9" stroke="#0E314C" stroke-linecap="round" stroke-linejoin="round"/>
<path d="M147.303 120.13C147.303 120.13 141.027 138.097 140.166 140.435C139.943 141.021 139.515 142.017 138.994 143.154C137.898 141.249 135.478 137.048 134.757 135.266C133.772 132.922 132.413 132.336 130.204 132.559C127.994 132.782 126.02 135.143 126.02 136.866C126.02 140.13 128.909 144.484 130.186 147.414C131.557 150.52 132.477 151.68 134.792 154.276C137.722 157.564 141.045 156.427 143.289 153.227C145.012 150.766 149.401 141.806 149.401 141.806C149.401 141.806 148.288 122.931 147.303 120.13Z" fill="#92E3A9" stroke="#0E314C" stroke-linecap="round" stroke-linejoin="round"/>
<path d="M138.988 143.125C138.988 143.125 136.562 146.611 136.333 148.457" stroke="#0E314C" stroke-linecap="round" stroke-linejoin="round"/>
<path d="M199.779 127.027C199.779 127.027 201.496 126.207 201.801 125.756C202.167 124.997 202.604 124.275 203.108 123.599C203.875 122.673 205.932 122.21 206.829 121.097C207.725 119.984 209.067 117.991 209.571 117.675C210.075 117.358 210.573 117.675 210.462 118.935C210.351 120.195 207.339 122.498 207.093 122.861C206.846 123.224 209.935 122.152 211.839 122.544C213.744 122.937 216.011 122.081 217.699 121.783C219.387 121.484 219.276 122.744 218.701 123.3C218.127 123.857 212.841 125.017 211.271 125.797C209.7 126.576 208.341 127.186 207.046 127.777C206.116 128.235 205.214 128.748 204.344 129.313L202.446 130.409L199.779 127.027Z" fill="white" stroke="#0E314C" stroke-linecap="round" stroke-linejoin="round"/>
<path d="M203.928 133.889L206.02 129.336C205.609 128.742 205.08 128.239 204.466 127.858C203.852 127.477 203.166 127.226 202.452 127.121C199.867 126.629 199.522 127.121 199.522 127.121L198.168 131.809C198.168 131.809 202.598 132.166 203.928 133.889Z" fill="#92E3A9" stroke="#0E314C" stroke-miterlimit="10"/>
<path d="M200.752 130.678C198.537 130.432 197.183 131.047 196.199 133.385C195.449 135.143 193.064 139.368 191.962 141.273C191.435 140.136 191.007 139.163 190.79 138.554C189.929 136.21 183.653 118.249 183.653 118.249C182.668 121.079 181.561 139.931 181.561 139.931C181.561 139.931 186.249 148.885 188.007 151.352C189.02 152.8 189.823 154.142 191.681 154.417C197.142 155.231 198.777 150.092 200.471 146.295C201.531 143.898 202.586 141.496 203.571 139.064C204.051 137.892 204.965 136.315 204.965 135.009C204.936 133.274 202.967 130.936 200.752 130.678Z" fill="#92E3A9" stroke="#0E314C" stroke-linecap="round" stroke-linejoin="round"/>
<path d="M191.962 141.285C191.962 141.285 194.423 144.766 194.892 146.611" stroke="#0E314C" stroke-linecap="round" stroke-linejoin="round"/>
<path d="M157.048 87.1148C157.048 87.1148 155.325 93.514 155.694 94.1468C156.064 94.7797 156.925 94.516 156.433 95.7466C155.941 96.9772 154.833 99.3212 155.079 100.306C155.325 101.29 156.679 102.029 156.679 102.029C156.679 102.029 157.294 106.459 157.91 107.303C158.525 108.146 161.847 107.672 161.847 107.672L162.094 110.994L171.944 110.408L171.575 104.501L171.083 86.2827L157.048 87.1148Z" fill="white"/>
<g style="mix-blend-mode:multiply" opacity="0.5">
<path d="M161.824 107.672L162.07 110.994L171.921 110.408L171.552 104.501L171.341 96.8365C170.057 96.8365 168.885 96.8892 168.522 96.8892C167.626 96.8892 165.668 96.7369 165.217 96.8892C164.766 97.0416 164.168 97.1881 164.168 97.1881L161.918 99.5907C161.918 99.5907 162.064 102.743 161.015 104.396C160.136 105.779 157.828 106.324 157.699 106.951C157.752 107.082 157.814 107.21 157.886 107.332C158.003 107.42 158.132 107.513 158.273 107.607C159.34 108.035 161.824 107.672 161.824 107.672Z" fill="#92E3A9"/>
</g>
<path d="M157.048 87.1148C157.048 87.1148 155.325 93.514 155.694 94.1468C156.064 94.7797 156.925 94.516 156.433 95.7466C155.941 96.9772 154.833 99.3212 155.079 100.306C155.325 101.29 156.679 102.029 156.679 102.029C156.679 102.029 157.294 106.459 157.91 107.303C158.525 108.146 161.847 107.672 161.847 107.672L162.094 110.994L171.944 110.408L171.575 104.501L171.083 86.2827L157.048 87.1148Z" stroke="#0E314C" stroke-miterlimit="10"/>
<path d="M157.927 95.9809C157.927 96.479 157.746 96.8775 157.523 96.8775C157.3 96.8775 157.113 96.479 157.113 95.9809C157.113 95.4828 157.294 95.0844 157.523 95.0844C157.752 95.0844 157.927 95.4828 157.927 95.9809Z" fill="#0E314C"/>
<path d="M168.845 82.1924C168.259 82.2861 163.571 82.1924 159.855 82.8077C156.14 83.423 155.056 83.6691 155.167 85.2689C155.279 86.8686 154.921 87.4839 156.275 88.0992C156.851 88.4016 157.476 88.6 158.121 88.6852C158.121 88.6852 157.752 90.4081 157.628 91.6152C157.505 92.8224 159.721 94.1995 159.721 94.1995C159.65 95.0236 159.691 95.8535 159.844 96.6666C160.09 97.2526 160.705 97.4049 161.074 96.9127C161.443 96.4204 161.689 94.0764 162.059 95.0609C162.428 96.0454 163.905 103.435 164.895 104.296C165.885 105.158 170.31 104.665 171.54 104.419C172.771 104.173 175.109 99.0047 176.228 95.9223C177.347 92.84 176.814 87.4312 175.244 84.97C173.673 82.5088 170.444 81.9462 168.845 82.1924Z" fill="white" stroke="#0E314C" stroke-miterlimit="10"/>
<path d="M175.619 85.7143C175.179 86.8863 174.728 88.3513 173.48 88.4451C171.528 88.5974 171.528 86.0425 170.175 85.14C168.821 84.2376 171.077 89.6464 170.028 88.1462C168.979 86.6461 166.272 85.14 163.869 84.9935C161.467 84.847 165.217 89.3475 164.321 89.3475C163.424 89.3475 161.918 86.4937 161.918 85.7436C161.918 84.9935 159.662 84.9701 157.107 84.9701C154.552 84.9701 155.607 86.4703 155.607 87.3727C155.608 87.5013 155.644 87.6271 155.712 87.736C155.893 87.8726 156.09 87.9867 156.298 88.0759C156.874 88.3783 157.499 88.5766 158.144 88.6619C158.144 88.6619 157.775 90.3847 157.652 91.5919C157.529 92.7991 159.744 94.1762 159.744 94.1762C159.673 95.0003 159.715 95.8302 159.867 96.6432C160.113 97.2292 160.729 97.3816 161.098 96.8893C161.467 96.3971 161.713 94.0531 162.082 95.0376C162.451 96.022 163.928 103.412 164.918 104.273C165.909 105.134 170.333 104.642 171.564 104.396C172.794 104.15 175.132 98.9813 176.252 95.899C177.242 93.1741 176.908 88.3865 175.619 85.7143Z" fill="#0E314C"/>
<path d="M159.732 110.625L157.025 115.547C157.025 115.547 163.793 113.579 167.491 113.579C170.09 113.625 172.682 113.872 175.244 114.317L173.521 109.518C173.521 109.518 164.162 108.533 159.732 110.625Z" fill="#92E3A9" stroke="#0E314C" stroke-miterlimit="10"/>
<path d="M158.009 114.932C158.009 114.932 153.579 117.276 150.977 118.501C149.776 119.099 148.544 119.633 147.286 120.101C147.286 120.101 150.362 159.275 150.362 161.367C150.362 163.459 150.239 163.582 150.977 164.197C151.716 164.813 155.537 165.094 162.305 164.971C169.073 164.848 177.541 163.459 178.18 163.459C178.677 163.423 179.159 163.271 179.586 163.014C180.014 162.758 180.375 162.404 180.641 161.982C181.379 160.875 183.717 119.116 183.84 118.618C183.963 118.12 175.718 114.557 174.857 114.311C173.996 114.065 169.091 110.754 158.009 114.932Z" fill="#92E3A9" stroke="#0E314C" stroke-miterlimit="10"/>
<path d="M172.929 146.295C172.154 147.001 171.326 147.646 170.45 148.223" stroke="#0E314C" stroke-linecap="round" stroke-linejoin="round"/>
<path d="M181.977 130.244C181.977 130.244 180.266 137.798 175.273 143.828" stroke="#0E314C" stroke-linecap="round" stroke-linejoin="round"/>
<path d="M161.016 95.0551C161.179 96.2012 161.278 97.3554 161.314 98.5124C161.314 99.8602 160.412 100.61 161.016 101.214C161.619 101.817 162.064 101.513 162.516 100.464C163 99.221 163.201 97.8855 163.102 96.5552C162.967 95.518 162.815 93.2502 161.016 95.0551Z" fill="white" stroke="#0E314C" stroke-miterlimit="10"/>
<path d="M167.643 217.078L170.942 183.348L176.076 177.113" stroke="white" stroke-miterlimit="10"/>
</svg>
