<svg width="21" height="22" viewBox="0 0 21 22" fill="none" xmlns="http://www.w3.org/2000/svg">
<path fill-rule="evenodd" clip-rule="evenodd" d="M0.149902 10.9999C0.149902 5.28375 4.78375 0.649902 10.4999 0.649902C16.216 0.649902 20.8499 5.28375 20.8499 10.9999C20.8499 16.716 16.216 21.3499 10.4999 21.3499C4.78375 21.3499 0.149902 16.716 0.149902 10.9999ZM10.4999 7.99994C11.3283 7.99994 11.9999 7.32837 11.9999 6.49994C11.9999 5.67151 11.3283 4.99994 10.4999 4.99994C9.67147 4.99994 8.99989 5.67151 8.99989 6.49994C8.99989 7.32837 9.67147 7.99994 10.4999 7.99994ZM10.4999 9.34997C11.1626 9.34997 11.6999 9.88723 11.6999 10.55V15.95C11.6999 16.6127 11.1626 17.15 10.4999 17.15C9.83715 17.15 9.29989 16.6127 9.29989 15.95V10.55C9.29989 9.88723 9.83715 9.34997 10.4999 9.34997Z" fill="#44CE6F"/>
</svg>
