<svg width="24" height="24" viewBox="0 0 24 24" fill="none" xmlns="http://www.w3.org/2000/svg">
<path d="M1.83247 11.0611L11.0523 1.84129C11.4819 1.41168 12.0835 1.20064 12.6873 1.26774L19.6877 2.04556C20.6174 2.14886 21.3513 2.88277 21.4546 3.81246L22.2324 10.8128C22.2995 11.4167 22.0885 12.0183 21.6589 12.4479L12.4391 21.6677C11.658 22.4487 10.3917 22.4487 9.61065 21.6677L1.83247 13.8895C1.05143 13.1085 1.05142 11.8421 1.83247 11.0611Z" stroke="#697586" stroke-width="1.5"/>
<path d="M17.4493 8.17221C18.0351 7.58643 18.0351 6.63668 17.4493 6.05089C16.8635 5.46511 15.9138 5.46511 15.328 6.05089C14.7422 6.63668 14.7422 7.58643 15.328 8.17221C15.9138 8.758 16.8635 8.758 17.4493 8.17221Z" stroke="#697586" stroke-width="1.5"/>
</svg>
