<svg width="300" height="300" viewBox="0 0 300 300" fill="none" xmlns="http://www.w3.org/2000/svg">
<path d="M234.552 93.6C234.552 93.6 221.25 63.384 191.874 58.908C162.498 54.432 141.984 76.254 120.366 87.45C109.044 93.306 96.114 91.05 84.096 93.87C45.672 102.948 31.2 159.78 47.202 192.096C61.056 220.074 85.446 234.618 122.586 237.978C159.726 241.338 185.772 245.25 219.03 217.836C252.288 190.422 250.074 133.344 234.552 93.6Z" fill="#92E3A9"/>
<path opacity="0.6" d="M234.552 93.6C234.552 93.6 221.25 63.384 191.874 58.908C162.498 54.432 141.984 76.254 120.366 87.45C109.044 93.306 96.114 91.05 84.096 93.87C45.672 102.948 31.2 159.78 47.202 192.096C61.056 220.074 85.446 234.618 122.586 237.978C159.726 241.338 185.772 245.25 219.03 217.836C252.288 190.422 250.074 133.344 234.552 93.6Z" fill="white"/>
<path d="M89.2319 147.978H104.088L110.634 142.92H136.494" stroke="#263238" stroke-linecap="round" stroke-linejoin="round"/>
<path d="M88.338 159.288H161.196" stroke="#263238" stroke-linecap="round" stroke-linejoin="round"/>
<path d="M89.2319 170.898H99.6239L105.576 176.85H134.112L147.804 184.584H155.838" stroke="#263238" stroke-linecap="round" stroke-linejoin="round"/>
<path d="M88.932 181.908H93.672L100.068 188.304H116.256L122.58 181.98H135.006" stroke="#263238" stroke-linecap="round" stroke-linejoin="round"/>
<path d="M99.324 159.288L106.32 152.298H137.088" stroke="#263238" stroke-linecap="round" stroke-linejoin="round"/>
<path d="M99.624 170.898H137.688" stroke="#263238" stroke-linecap="round" stroke-linejoin="round"/>
<path d="M41.406 132.21H39.642V140.154H41.406V132.21Z" fill="white" stroke="#263238" stroke-linecap="round" stroke-linejoin="round"/>
<path d="M42.462 137.748H38.58V145.692H42.462V137.748Z" fill="white" stroke="#263238" stroke-linecap="round" stroke-linejoin="round"/>
<path d="M52.7039 132.21H50.9399V140.154H52.7039V132.21Z" fill="white" stroke="#263238" stroke-linecap="round" stroke-linejoin="round"/>
<path d="M53.7659 137.748H49.8839V145.692H53.7659V137.748Z" fill="white" stroke="#263238" stroke-linecap="round" stroke-linejoin="round"/>
<path d="M64.008 132.21H62.244V140.154H64.008V132.21Z" fill="white" stroke="#263238" stroke-linecap="round" stroke-linejoin="round"/>
<path d="M65.064 137.748H61.182V145.692H65.064V137.748Z" fill="white" stroke="#263238" stroke-linecap="round" stroke-linejoin="round"/>
<path d="M75.312 132.21H73.548V140.154H75.312V132.21Z" fill="white" stroke="#263238" stroke-linecap="round" stroke-linejoin="round"/>
<path d="M76.368 137.748H72.486V145.692H76.368V137.748Z" fill="white" stroke="#263238" stroke-linecap="round" stroke-linejoin="round"/>
<path d="M73.548 197.784H75.312V189.84H73.548V197.784Z" fill="white" stroke="#263238" stroke-linecap="round" stroke-linejoin="round"/>
<path d="M72.492 192.252H76.374V184.308H72.492V192.252Z" fill="white" stroke="#263238" stroke-linecap="round" stroke-linejoin="round"/>
<path d="M62.2439 197.784H64.0079V189.84H62.2439V197.784Z" fill="white" stroke="#263238" stroke-linecap="round" stroke-linejoin="round"/>
<path d="M61.1879 192.252H65.0699V184.308H61.1879V192.252Z" fill="white" stroke="#263238" stroke-linecap="round" stroke-linejoin="round"/>
<path d="M50.946 197.784H52.71V189.84H50.946V197.784Z" fill="white" stroke="#263238" stroke-linecap="round" stroke-linejoin="round"/>
<path d="M49.884 192.252H53.766V184.308H49.884V192.252Z" fill="white" stroke="#263238" stroke-linecap="round" stroke-linejoin="round"/>
<path d="M39.642 197.784H41.406V189.84H39.642V197.784Z" fill="white" stroke="#263238" stroke-linecap="round" stroke-linejoin="round"/>
<path d="M38.586 192.252H42.468V184.308H38.586V192.252Z" fill="white" stroke="#263238" stroke-linecap="round" stroke-linejoin="round"/>
<path d="M90.27 148.926V147.162H82.326V148.926H90.27Z" fill="white" stroke="#263238" stroke-linecap="round" stroke-linejoin="round"/>
<path d="M84.726 149.988V146.106H76.7819V149.988H84.726Z" fill="white" stroke="#263238" stroke-linecap="round" stroke-linejoin="round"/>
<path d="M90.2639 160.23V158.466H82.3199V160.23H90.2639Z" fill="white" stroke="#263238" stroke-linecap="round" stroke-linejoin="round"/>
<path d="M84.726 161.286V157.404H76.7819V161.286H84.726Z" fill="white" stroke="#263238" stroke-linecap="round" stroke-linejoin="round"/>
<path d="M90.2639 171.534V169.77H82.3199V171.534H90.2639Z" fill="white" stroke="#263238" stroke-linecap="round" stroke-linejoin="round"/>
<path d="M84.726 172.59V168.708H76.7819V172.59H84.726Z" fill="white" stroke="#263238" stroke-linecap="round" stroke-linejoin="round"/>
<path d="M90.27 182.832V181.068H82.326V182.832H90.27Z" fill="white" stroke="#263238" stroke-linecap="round" stroke-linejoin="round"/>
<path d="M84.726 183.894V180.012H76.782V183.894H84.726Z" fill="white" stroke="#263238" stroke-linecap="round" stroke-linejoin="round"/>
<path d="M24.684 181.068V182.832H32.628V181.068H24.684Z" fill="white" stroke="#263238" stroke-linecap="round" stroke-linejoin="round"/>
<path d="M30.228 180.012V183.894H38.172V180.012H30.228Z" fill="white" stroke="#263238" stroke-linecap="round" stroke-linejoin="round"/>
<path d="M24.6899 169.764V171.528H32.634V169.764H24.6899Z" fill="white" stroke="#263238" stroke-linecap="round" stroke-linejoin="round"/>
<path d="M30.2279 168.714V172.596H38.1719V168.714H30.2279Z" fill="white" stroke="#263238" stroke-linecap="round" stroke-linejoin="round"/>
<path d="M24.684 158.466V160.23H32.628V158.466H24.684Z" fill="white" stroke="#263238" stroke-linecap="round" stroke-linejoin="round"/>
<path d="M30.2279 157.41V161.292H38.1719V157.41H30.2279Z" fill="white" stroke="#263238" stroke-linecap="round" stroke-linejoin="round"/>
<path d="M24.684 147.162V148.926H32.628V147.162H24.684Z" fill="white" stroke="#263238" stroke-linecap="round" stroke-linejoin="round"/>
<path d="M30.2219 146.112V149.994H38.1659V146.112H30.2219Z" fill="white" stroke="#263238" stroke-linecap="round" stroke-linejoin="round"/>
<path d="M75.1739 142.812H39.7739C37.3118 142.812 35.3159 144.808 35.3159 147.27V182.67C35.3159 185.132 37.3118 187.128 39.7739 187.128H75.1739C77.636 187.128 79.6319 185.132 79.6319 182.67V147.27C79.6319 144.808 77.636 142.812 75.1739 142.812Z" fill="#92E3A9" stroke="#263238" stroke-linecap="round" stroke-linejoin="round"/>
<path d="M43.2719 170.04C42.6911 170.04 42.1341 169.809 41.7233 169.398C41.3126 168.988 41.0819 168.431 41.0819 167.85C41.0819 167.269 41.3126 166.712 41.7233 166.301C42.1341 165.891 42.6911 165.66 43.2719 165.66H72.5279C73.1087 165.66 73.6658 165.891 74.0765 166.301C74.4872 166.712 74.7179 167.269 74.7179 167.85C74.7179 168.431 74.4872 168.988 74.0765 169.398C73.6658 169.809 73.1087 170.04 72.5279 170.04H43.2719Z" fill="white"/>
<path d="M72.528 165.96C73.0292 165.96 73.51 166.159 73.8644 166.513C74.2189 166.868 74.418 167.349 74.418 167.85C74.418 168.351 74.2189 168.832 73.8644 169.186C73.51 169.541 73.0292 169.74 72.528 169.74H43.272C42.7707 169.74 42.29 169.541 41.9356 169.186C41.5811 168.832 41.382 168.351 41.382 167.85C41.382 167.349 41.5811 166.868 41.9356 166.513C42.29 166.159 42.7707 165.96 43.272 165.96H72.528ZM72.528 165.36H43.272C42.6116 165.36 41.9783 165.622 41.5113 166.089C41.0443 166.556 40.782 167.189 40.782 167.85C40.782 168.51 41.0443 169.144 41.5113 169.611C41.9783 170.078 42.6116 170.34 43.272 170.34H72.528C73.1884 170.34 73.8217 170.078 74.2887 169.611C74.7556 169.144 75.018 168.51 75.018 167.85C75.018 167.189 74.7556 166.556 74.2887 166.089C73.8217 165.622 73.1884 165.36 72.528 165.36Z" fill="#263238"/>
<path d="M65.82 165.96H43.98C42.546 165.96 41.376 166.806 41.376 167.85C41.376 168.894 42.576 169.74 43.98 169.74H65.82V165.96Z" fill="#263238" stroke="#263238" stroke-linecap="round" stroke-linejoin="round"/>
<path d="M44.6939 161.34V159.63H45.3959V161.31C45.3959 161.91 45.6479 162.126 46.0739 162.126C46.4999 162.126 46.7519 161.892 46.7519 161.31V159.63H47.4479V161.34C47.4604 161.528 47.434 161.717 47.3704 161.895C47.3069 162.073 47.2075 162.236 47.0784 162.374C46.9493 162.512 46.7933 162.622 46.62 162.697C46.4467 162.772 46.2598 162.811 46.0709 162.811C45.882 162.811 45.6952 162.772 45.5219 162.697C45.3486 162.622 45.1926 162.512 45.0635 162.374C44.9344 162.236 44.835 162.073 44.7714 161.895C44.7078 161.717 44.6815 161.528 44.6939 161.34Z" fill="#263238"/>
<path d="M50.784 160.74C50.784 161.418 50.28 161.838 49.464 161.838H48.864V162.678H48.15V159.63H49.464C50.28 159.63 50.784 160.056 50.784 160.74ZM50.076 160.74C50.076 160.404 49.854 160.206 49.428 160.206H48.828V161.262H49.428C49.854 161.262 50.076 161.07 50.076 160.74Z" fill="#263238"/>
<path d="M51.288 159.63H52.674C52.8855 159.611 53.0986 159.637 53.2997 159.705C53.5008 159.773 53.6856 159.882 53.8422 160.025C53.9989 160.169 54.124 160.343 54.2095 160.537C54.2951 160.732 54.3393 160.942 54.3393 161.154C54.3393 161.366 54.2951 161.576 54.2095 161.771C54.124 161.965 53.9989 162.139 53.8422 162.283C53.6856 162.426 53.5008 162.535 53.2997 162.603C53.0986 162.671 52.8855 162.697 52.674 162.678H51.288V159.63ZM52.638 162.096C52.7617 162.096 52.8842 162.072 52.9984 162.024C53.1127 161.977 53.2166 161.908 53.3041 161.82C53.3915 161.733 53.4609 161.629 53.5083 161.515C53.5556 161.4 53.58 161.278 53.58 161.154C53.58 161.03 53.5556 160.908 53.5083 160.794C53.4609 160.679 53.3915 160.575 53.3041 160.488C53.2166 160.4 53.1127 160.331 52.9984 160.284C52.8842 160.236 52.7617 160.212 52.638 160.212H51.996V162.096H52.638Z" fill="#263238"/>
<path d="M56.844 162H55.428L55.164 162.654H54.438L55.8 159.63H56.496L57.858 162.678H57.114L56.844 162ZM56.622 161.466L56.142 160.302L55.656 161.466H56.622Z" fill="#263238"/>
<path d="M58.65 160.2H57.678V159.6H60.33V160.2H59.358V162.672H58.65V160.2Z" fill="#263238"/>
<path d="M60.708 159.63H61.416V162.678H60.708V159.63Z" fill="#263238"/>
<path d="M64.9259 159.63V162.678H64.3259L62.8079 160.83V162.678H62.1119V159.63H62.7119L64.2239 161.478V159.63H64.9259Z" fill="#263238"/>
<path d="M67.71 161.106H68.352V162.342C68.0009 162.59 67.5819 162.724 67.152 162.726C66.735 162.726 66.3352 162.56 66.0404 162.265C65.7456 161.971 65.58 161.571 65.58 161.154C65.58 160.737 65.7456 160.337 66.0404 160.042C66.3352 159.748 66.735 159.582 67.152 159.582C67.3901 159.571 67.6279 159.612 67.8486 159.702C68.0694 159.792 68.2678 159.929 68.43 160.104L67.974 160.524C67.8748 160.419 67.7547 160.335 67.6214 160.28C67.488 160.224 67.3445 160.197 67.2 160.2C66.9422 160.2 66.6949 160.302 66.5126 160.485C66.3304 160.667 66.228 160.914 66.228 161.172C66.228 161.43 66.3304 161.677 66.5126 161.859C66.6949 162.041 66.9422 162.144 67.2 162.144C67.3897 162.149 67.5775 162.105 67.746 162.018L67.71 161.106Z" fill="#263238"/>
<path d="M68.838 162.288C68.838 162.177 68.8823 162.07 68.961 161.991C69.0398 161.912 69.1466 161.868 69.258 161.868C69.3694 161.868 69.4762 161.912 69.555 161.991C69.6338 162.07 69.678 162.177 69.678 162.288C69.678 162.399 69.6338 162.506 69.555 162.585C69.4762 162.664 69.3694 162.708 69.258 162.708C69.1466 162.708 69.0398 162.664 68.961 162.585C68.8823 162.506 68.838 162.399 68.838 162.288Z" fill="#263238"/>
<path d="M69.9779 162.288C69.9779 162.177 70.0222 162.07 70.1009 161.991C70.1797 161.912 70.2865 161.868 70.3979 161.868C70.5093 161.868 70.6161 161.912 70.6949 161.991C70.7737 162.07 70.8179 162.177 70.8179 162.288C70.8179 162.399 70.7737 162.506 70.6949 162.585C70.6161 162.664 70.5093 162.708 70.3979 162.708C70.2865 162.708 70.1797 162.664 70.1009 162.585C70.0222 162.506 69.9779 162.399 69.9779 162.288Z" fill="#263238"/>
<path d="M71.118 162.288C71.1163 162.232 71.126 162.177 71.1466 162.125C71.1671 162.073 71.198 162.027 71.2373 161.987C71.2766 161.948 71.3236 161.917 71.3753 161.896C71.427 161.876 71.4824 161.866 71.538 161.868C71.5939 161.866 71.6495 161.876 71.7015 161.896C71.7535 161.917 71.8009 161.948 71.8407 161.987C71.8805 162.026 71.9119 162.073 71.9331 162.125C71.9543 162.176 71.9648 162.232 71.964 162.288C71.9648 162.344 71.9543 162.4 71.9332 162.452C71.9121 162.504 71.8807 162.551 71.841 162.591C71.8013 162.631 71.754 162.662 71.702 162.683C71.6499 162.704 71.5941 162.715 71.538 162.714C71.4821 162.715 71.4266 162.704 71.3749 162.683C71.3231 162.662 71.2762 162.63 71.237 162.591C71.1977 162.551 71.167 162.503 71.1465 162.451C71.1261 162.399 71.1164 162.344 71.118 162.288Z" fill="#263238"/>
<path d="M196.458 83.5979H119.472C116.93 83.5979 114.87 85.6583 114.87 88.1999V241.8C114.87 244.342 116.93 246.402 119.472 246.402H196.458C199 246.402 201.06 244.342 201.06 241.8V88.1999C201.06 85.6583 199 83.5979 196.458 83.5979Z" fill="white" stroke="#263238" stroke-linecap="round" stroke-linejoin="round"/>
<path d="M197.232 101.472H118.704V228.522H197.232V101.472Z" fill="#263238"/>
<path d="M133.393 122.819L131.57 121.111L133.393 119.4L133.675 119.702L132.174 121.111L133.675 122.517L133.393 122.819Z" fill="#C7C7C7"/>
<path d="M184.12 120.045C184.12 120.117 184.098 120.187 184.057 120.247C184.017 120.307 183.959 120.353 183.892 120.379C183.825 120.406 183.752 120.411 183.682 120.396C183.611 120.38 183.547 120.344 183.498 120.291C183.449 120.239 183.416 120.173 183.405 120.102C183.393 120.031 183.403 119.958 183.434 119.893C183.464 119.827 183.513 119.773 183.575 119.736C183.637 119.699 183.708 119.681 183.78 119.685C183.872 119.69 183.959 119.729 184.023 119.797C184.086 119.864 184.121 119.953 184.12 120.045Z" fill="#C7C7C7"/>
<path d="M184.12 121.322C184.12 121.394 184.098 121.464 184.057 121.524C184.017 121.583 183.959 121.629 183.892 121.656C183.825 121.682 183.752 121.688 183.682 121.672C183.611 121.657 183.547 121.62 183.498 121.568C183.449 121.516 183.416 121.45 183.405 121.379C183.393 121.307 183.403 121.235 183.434 121.169C183.464 121.104 183.513 121.049 183.575 121.012C183.637 120.975 183.708 120.958 183.78 120.962C183.872 120.966 183.959 121.006 184.023 121.073C184.086 121.14 184.121 121.229 184.12 121.322Z" fill="#C7C7C7"/>
<path d="M184.12 122.598C184.12 122.67 184.098 122.741 184.057 122.8C184.017 122.86 183.959 122.906 183.892 122.932C183.825 122.959 183.752 122.965 183.682 122.949C183.611 122.933 183.547 122.897 183.498 122.845C183.449 122.792 183.416 122.726 183.405 122.655C183.393 122.584 183.403 122.511 183.434 122.446C183.464 122.381 183.513 122.326 183.575 122.289C183.637 122.252 183.708 122.234 183.78 122.238C183.872 122.243 183.959 122.283 184.023 122.35C184.086 122.417 184.121 122.506 184.12 122.598Z" fill="#C7C7C7"/>
<path d="M154.183 216.65C154.182 216.819 154.131 216.985 154.036 217.126C153.942 217.267 153.807 217.376 153.65 217.441C153.493 217.505 153.321 217.522 153.154 217.488C152.988 217.455 152.835 217.373 152.715 217.252C152.595 217.132 152.514 216.979 152.481 216.812C152.448 216.646 152.465 216.473 152.531 216.317C152.596 216.16 152.706 216.026 152.847 215.932C152.988 215.837 153.154 215.787 153.324 215.787C153.437 215.787 153.549 215.809 153.653 215.853C153.758 215.896 153.853 215.96 153.932 216.04C154.012 216.12 154.075 216.215 154.118 216.32C154.161 216.424 154.183 216.536 154.183 216.65Z" fill="#DBDBDB"/>
<path d="M159.412 216.65C159.412 216.907 159.335 217.158 159.192 217.372C159.05 217.586 158.846 217.753 158.609 217.851C158.371 217.949 158.11 217.975 157.858 217.925C157.605 217.875 157.374 217.751 157.192 217.569C157.01 217.387 156.886 217.156 156.836 216.903C156.786 216.651 156.811 216.39 156.91 216.152C157.008 215.914 157.175 215.711 157.389 215.568C157.603 215.425 157.854 215.349 158.111 215.349C158.456 215.35 158.786 215.487 159.03 215.731C159.273 215.975 159.411 216.305 159.412 216.65Z" fill="#92E3A9"/>
<path d="M163.768 216.65C163.767 216.819 163.716 216.985 163.622 217.126C163.527 217.267 163.392 217.376 163.235 217.441C163.078 217.505 162.906 217.522 162.739 217.488C162.573 217.455 162.42 217.373 162.3 217.252C162.181 217.132 162.099 216.979 162.066 216.812C162.033 216.646 162.051 216.473 162.116 216.317C162.181 216.16 162.291 216.026 162.432 215.932C162.573 215.837 162.739 215.787 162.909 215.787C163.022 215.787 163.134 215.809 163.239 215.853C163.343 215.896 163.438 215.96 163.518 216.04C163.598 216.12 163.661 216.215 163.704 216.32C163.747 216.424 163.769 216.536 163.768 216.65Z" fill="#DBDBDB"/>
<path d="M183.933 185.158H132.113V161.241H183.933V185.158ZM132.453 184.818H183.593V161.58H132.453V184.818Z" fill="#EBEBEB"/>
<path d="M132.352 161.237L132.211 161.546L183.693 185.138L183.835 184.829L132.352 161.237Z" fill="#EBEBEB"/>
<path d="M183.697 161.247L132.21 184.83L132.351 185.139L183.838 161.556L183.697 161.247Z" fill="#EBEBEB"/>
<path d="M159.975 211.101H156.146V207.197H159.975V211.101ZM156.485 210.762H159.636V207.536H156.485V210.762Z" fill="#EBEBEB"/>
<path d="M156.434 207.256L156.191 207.493L159.683 211.059L159.926 210.822L156.434 207.256Z" fill="#EBEBEB"/>
<path d="M159.683 207.257L156.193 210.825L156.435 211.062L159.926 207.494L159.683 207.257Z" fill="#EBEBEB"/>
<path d="M169.598 197.588H146.078V189.877H169.598V197.588ZM146.418 197.248H169.258V190.217H146.418V197.248Z" fill="#EBEBEB"/>
<path d="M146.303 189.885L146.2 190.208L169.38 197.579L169.483 197.256L146.303 189.885Z" fill="#EBEBEB"/>
<path d="M169.379 189.892L146.196 197.255L146.299 197.579L169.482 190.216L169.379 189.892Z" fill="#EBEBEB"/>
<path d="M170.803 148.542H145.236V122.972H170.803V148.542ZM145.576 148.203H170.464V123.311H145.576V148.203Z" fill="#EBEBEB"/>
<path d="M145.525 123.019L145.285 123.26L170.513 148.488L170.753 148.248L145.525 123.019Z" fill="#EBEBEB"/>
<path d="M170.513 123.023L145.285 148.251L145.525 148.491L170.753 123.263L170.513 123.023Z" fill="#EBEBEB"/>
<path d="M135.498 203.201C139.25 203.129 143.005 203.099 146.761 203.072L158.023 203.031L169.285 203.068L174.918 203.116L180.548 203.201L174.918 203.282L169.285 203.33L158.023 203.37L146.761 203.343C143.005 203.302 139.25 203.272 135.498 203.201Z" fill="#EBEBEB"/>
<path d="M163.951 153.262H152.095V154.117H163.951V153.262Z" fill="#EBEBEB"/>
<path d="M166.097 155.014H149.942V155.869H166.097V155.014Z" fill="#EBEBEB"/>
<path d="M182.925 160.585H131.444V184.18H182.925V160.585Z" fill="white"/>
<path d="M182.969 184.221H131.4V160.542H182.969V184.221ZM131.485 184.136H182.88V160.626H131.485V184.136Z" fill="#263238"/>
<path d="M135.468 165.855V164.636C135.468 164.606 135.48 164.576 135.502 164.555C135.523 164.533 135.553 164.521 135.583 164.521H136.262C136.293 164.521 136.322 164.533 136.344 164.555C136.366 164.576 136.378 164.606 136.378 164.636C136.378 164.667 136.366 164.696 136.344 164.718C136.322 164.739 136.293 164.752 136.262 164.752H135.699V165.132H136.181C136.211 165.132 136.241 165.144 136.262 165.166C136.284 165.187 136.296 165.217 136.296 165.247C136.296 165.278 136.284 165.307 136.262 165.329C136.241 165.351 136.211 165.363 136.181 165.363H135.699V165.743H136.262C136.293 165.745 136.321 165.758 136.342 165.78C136.363 165.802 136.374 165.832 136.374 165.862C136.374 165.891 136.361 165.919 136.341 165.94C136.32 165.961 136.292 165.973 136.262 165.974H135.583C135.568 165.974 135.553 165.971 135.538 165.965C135.524 165.959 135.511 165.95 135.5 165.939C135.49 165.928 135.481 165.915 135.476 165.9C135.47 165.886 135.467 165.871 135.468 165.855Z" fill="#263238"/>
<path d="M137.542 165.359V165.858C137.542 165.887 137.531 165.915 137.511 165.935C137.49 165.956 137.463 165.967 137.434 165.967C137.405 165.967 137.377 165.956 137.356 165.935C137.335 165.915 137.323 165.888 137.322 165.858V165.359C137.319 165.304 137.296 165.252 137.256 165.213C137.216 165.175 137.163 165.153 137.108 165.152C137.052 165.153 136.998 165.176 136.959 165.216C136.919 165.256 136.897 165.31 136.897 165.366V165.858C136.887 165.878 136.872 165.894 136.853 165.905C136.835 165.916 136.814 165.922 136.792 165.923H136.772C136.747 165.918 136.725 165.904 136.708 165.884C136.692 165.864 136.684 165.84 136.683 165.814V165.322V165.003C136.683 164.988 136.685 164.974 136.691 164.96C136.696 164.947 136.704 164.934 136.714 164.924C136.724 164.913 136.736 164.905 136.75 164.899C136.763 164.894 136.777 164.891 136.792 164.891C136.813 164.89 136.833 164.895 136.851 164.906C136.868 164.917 136.882 164.933 136.891 164.952C136.958 164.912 137.036 164.89 137.115 164.891C137.178 164.887 137.242 164.899 137.301 164.923C137.359 164.948 137.412 164.986 137.454 165.033C137.496 164.985 137.548 164.947 137.607 164.922C137.666 164.897 137.73 164.887 137.794 164.891C137.851 164.891 137.907 164.902 137.959 164.924C138.012 164.946 138.06 164.978 138.1 165.018C138.14 165.059 138.172 165.107 138.193 165.159C138.215 165.212 138.225 165.268 138.225 165.325V165.818C138.22 165.844 138.207 165.867 138.187 165.884C138.166 165.901 138.141 165.91 138.115 165.91C138.088 165.91 138.063 165.901 138.043 165.884C138.022 165.867 138.009 165.844 138.004 165.818V165.325C138.004 165.269 137.982 165.215 137.943 165.175C137.903 165.135 137.85 165.112 137.794 165.111C137.76 165.106 137.725 165.108 137.692 165.118C137.659 165.129 137.629 165.147 137.605 165.171C137.58 165.195 137.562 165.225 137.551 165.258C137.54 165.29 137.537 165.325 137.542 165.359Z" fill="#263238"/>
<path d="M139.525 165.451V165.859C139.525 165.887 139.514 165.915 139.493 165.935C139.473 165.956 139.445 165.967 139.417 165.967C139.391 165.967 139.367 165.958 139.347 165.942C139.327 165.926 139.313 165.904 139.308 165.879C139.228 165.938 139.132 165.969 139.033 165.967C138.969 165.966 138.907 165.952 138.848 165.926C138.79 165.901 138.737 165.864 138.693 165.818C138.602 165.718 138.551 165.587 138.551 165.451C138.551 165.315 138.602 165.185 138.693 165.084C138.773 164.999 138.88 164.946 138.995 164.934C139.111 164.922 139.227 164.953 139.322 165.02C139.327 164.995 139.341 164.973 139.36 164.957C139.38 164.941 139.405 164.932 139.43 164.932C139.445 164.932 139.459 164.935 139.473 164.94C139.486 164.946 139.498 164.954 139.508 164.965C139.518 164.975 139.526 164.987 139.532 165.001C139.537 165.015 139.539 165.029 139.539 165.044L139.525 165.451ZM139.308 165.451C139.309 165.412 139.303 165.373 139.289 165.336C139.275 165.299 139.253 165.266 139.227 165.237C139.202 165.211 139.172 165.189 139.138 165.175C139.105 165.16 139.069 165.153 139.033 165.152C138.997 165.152 138.96 165.159 138.927 165.174C138.894 165.189 138.864 165.21 138.839 165.237C138.813 165.266 138.792 165.3 138.779 165.336C138.766 165.373 138.76 165.412 138.761 165.451C138.759 165.53 138.787 165.606 138.839 165.665C138.864 165.691 138.895 165.712 138.928 165.726C138.961 165.74 138.997 165.747 139.033 165.746C139.106 165.746 139.175 165.716 139.227 165.665C139.28 165.607 139.309 165.53 139.308 165.451Z" fill="#263238"/>
<path d="M140.16 164.67C140.16 164.7 140.148 164.728 140.127 164.749C140.106 164.77 140.078 164.782 140.048 164.782C140.018 164.782 139.99 164.77 139.969 164.749C139.948 164.728 139.936 164.7 139.936 164.67V164.636C139.936 164.607 139.948 164.578 139.969 164.557C139.99 164.536 140.018 164.524 140.048 164.524C140.078 164.524 140.106 164.536 140.127 164.557C140.148 164.578 140.16 164.607 140.16 164.636V164.67ZM140.16 165.047V165.855C140.16 165.885 140.148 165.913 140.127 165.934C140.106 165.955 140.078 165.967 140.048 165.967C140.018 165.967 139.99 165.955 139.969 165.934C139.948 165.913 139.936 165.885 139.936 165.855V165.047C139.936 165.017 139.948 164.989 139.969 164.968C139.99 164.947 140.018 164.935 140.048 164.935C140.078 164.935 140.106 164.947 140.127 164.968C140.148 164.989 140.16 165.017 140.16 165.047Z" fill="#263238"/>
<path d="M140.602 164.514C140.632 164.514 140.662 164.526 140.683 164.548C140.705 164.569 140.717 164.599 140.717 164.629V165.855C140.716 165.885 140.704 165.914 140.682 165.935C140.66 165.955 140.632 165.967 140.602 165.967C140.572 165.967 140.543 165.955 140.521 165.935C140.5 165.914 140.487 165.885 140.486 165.855V164.636C140.486 164.621 140.488 164.605 140.494 164.59C140.499 164.576 140.508 164.562 140.519 164.551C140.529 164.54 140.542 164.531 140.556 164.524C140.571 164.518 140.586 164.514 140.602 164.514Z" fill="#263238"/>
<path d="M135.953 174.724H135.699V175.162C135.698 175.192 135.685 175.22 135.664 175.241C135.642 175.262 135.613 175.274 135.583 175.274C135.553 175.274 135.524 175.262 135.503 175.241C135.481 175.22 135.469 175.192 135.468 175.162V173.936C135.468 173.905 135.48 173.876 135.502 173.854C135.523 173.833 135.553 173.821 135.583 173.821H135.953C136.071 173.821 136.184 173.867 136.268 173.951C136.351 174.034 136.398 174.147 136.398 174.265C136.398 174.383 136.351 174.496 136.268 174.58C136.184 174.663 136.071 174.71 135.953 174.71V174.724ZM135.699 174.493H135.953C136.01 174.493 136.064 174.47 136.105 174.43C136.145 174.39 136.167 174.336 136.167 174.279C136.167 174.222 136.145 174.168 136.105 174.128C136.064 174.088 136.01 174.065 135.953 174.065H135.699V174.493Z" fill="#263238"/>
<path d="M137.532 174.771V175.179C137.532 175.207 137.521 175.235 137.5 175.255C137.48 175.276 137.452 175.287 137.423 175.287C137.398 175.287 137.373 175.278 137.354 175.262C137.334 175.246 137.32 175.224 137.315 175.199C137.22 175.266 137.105 175.297 136.989 175.285C136.874 175.274 136.766 175.222 136.687 175.138C136.594 175.038 136.543 174.907 136.544 174.771C136.542 174.635 136.593 174.503 136.687 174.404C136.73 174.357 136.782 174.318 136.84 174.292C136.899 174.265 136.962 174.25 137.026 174.248C137.125 174.25 137.221 174.282 137.301 174.34C137.306 174.315 137.32 174.292 137.34 174.275C137.359 174.259 137.384 174.249 137.41 174.248C137.424 174.248 137.439 174.251 137.452 174.257C137.466 174.263 137.478 174.271 137.488 174.281C137.498 174.292 137.506 174.304 137.511 174.318C137.516 174.331 137.519 174.346 137.518 174.36L137.532 174.771ZM137.311 174.771C137.314 174.693 137.286 174.616 137.233 174.557C137.209 174.53 137.179 174.508 137.146 174.494C137.112 174.479 137.076 174.472 137.04 174.472C137.003 174.471 136.967 174.478 136.933 174.493C136.9 174.508 136.87 174.53 136.846 174.557C136.82 174.586 136.799 174.62 136.786 174.656C136.772 174.693 136.766 174.732 136.768 174.771C136.766 174.85 136.794 174.927 136.846 174.985C136.871 175.011 136.901 175.032 136.935 175.046C136.968 175.06 137.004 175.067 137.04 175.067C137.112 175.066 137.182 175.036 137.233 174.985C137.283 174.925 137.311 174.849 137.311 174.771Z" fill="#263238"/>
<path d="M137.889 174.992C137.897 174.98 137.908 174.97 137.921 174.962C137.934 174.955 137.948 174.95 137.963 174.948C137.978 174.947 137.993 174.948 138.007 174.953C138.021 174.958 138.034 174.965 138.045 174.975C138.109 175.029 138.189 175.061 138.272 175.067C138.323 175.066 138.372 175.052 138.415 175.026C138.425 175.019 138.434 175.01 138.44 174.999C138.446 174.989 138.451 174.977 138.452 174.965C138.454 174.958 138.454 174.951 138.452 174.944C138.446 174.933 138.437 174.923 138.425 174.917C138.373 174.889 138.317 174.869 138.259 174.859C138.195 174.851 138.133 174.832 138.075 174.805C138.018 174.778 137.969 174.738 137.933 174.686C137.909 174.646 137.897 174.6 137.899 174.554C137.9 174.509 137.912 174.465 137.933 174.426C137.955 174.386 137.985 174.352 138.021 174.326C138.096 174.274 138.185 174.247 138.276 174.248C138.389 174.254 138.498 174.294 138.588 174.364C138.611 174.381 138.627 174.406 138.634 174.434C138.64 174.462 138.636 174.491 138.622 174.517C138.614 174.529 138.603 174.539 138.591 174.548C138.579 174.556 138.565 174.562 138.55 174.564C138.536 174.567 138.521 174.567 138.506 174.564C138.492 174.561 138.478 174.555 138.466 174.547C138.412 174.502 138.346 174.475 138.276 174.469C138.231 174.468 138.187 174.481 138.15 174.506C138.123 174.527 138.119 174.544 138.119 174.554C138.117 174.559 138.117 174.565 138.119 174.571C138.119 174.571 138.119 174.571 138.143 174.591C138.189 174.619 138.24 174.636 138.293 174.642C138.36 174.652 138.425 174.671 138.486 174.7C138.547 174.725 138.599 174.768 138.636 174.822C138.659 174.865 138.672 174.913 138.673 174.961C138.672 175.009 138.66 175.056 138.638 175.098C138.615 175.139 138.583 175.175 138.544 175.202C138.463 175.256 138.369 175.284 138.272 175.284C138.136 175.28 138.006 175.23 137.902 175.141C137.882 175.122 137.869 175.097 137.867 175.069C137.864 175.042 137.872 175.014 137.889 174.992Z" fill="#263238"/>
<path d="M138.89 174.992C138.899 174.98 138.91 174.97 138.923 174.962C138.936 174.955 138.95 174.95 138.965 174.948C138.979 174.947 138.994 174.948 139.008 174.953C139.022 174.957 139.035 174.965 139.046 174.975C139.111 175.029 139.19 175.061 139.274 175.067C139.323 175.066 139.371 175.052 139.413 175.026C139.424 175.019 139.433 175.01 139.439 175C139.446 174.989 139.45 174.977 139.451 174.965C139.452 174.958 139.452 174.951 139.451 174.944C139.444 174.933 139.435 174.923 139.423 174.917C139.371 174.889 139.315 174.87 139.257 174.859C139.195 174.851 139.134 174.832 139.077 174.805C139.019 174.78 138.97 174.738 138.934 174.686C138.91 174.647 138.897 174.601 138.897 174.554C138.899 174.509 138.91 174.465 138.932 174.426C138.953 174.386 138.983 174.352 139.019 174.326C139.095 174.275 139.185 174.248 139.277 174.248C139.39 174.253 139.498 174.294 139.586 174.364C139.611 174.38 139.628 174.405 139.634 174.433C139.641 174.462 139.636 174.492 139.62 174.517C139.612 174.529 139.602 174.539 139.59 174.547C139.578 174.556 139.565 174.561 139.55 174.564C139.536 174.567 139.521 174.567 139.507 174.564C139.493 174.561 139.479 174.555 139.467 174.547C139.413 174.503 139.347 174.476 139.277 174.469C139.233 174.468 139.189 174.481 139.152 174.506C139.125 174.527 139.118 174.544 139.118 174.554C139.116 174.559 139.116 174.565 139.118 174.571C139.124 174.579 139.132 174.586 139.142 174.591C139.189 174.618 139.241 174.635 139.294 174.642C139.361 174.653 139.426 174.672 139.488 174.7C139.547 174.726 139.598 174.768 139.634 174.822C139.66 174.864 139.674 174.912 139.675 174.961C139.673 175.009 139.66 175.056 139.637 175.098C139.614 175.14 139.582 175.176 139.542 175.202C139.463 175.256 139.37 175.285 139.274 175.284C139.138 175.282 139.007 175.231 138.904 175.141C138.884 175.122 138.871 175.097 138.868 175.069C138.866 175.042 138.874 175.014 138.89 174.992Z" fill="#263238"/>
<path d="M141.264 174.415L140.924 175.223V175.24H140.904H140.887H140.839H140.822C140.817 175.241 140.811 175.241 140.805 175.24V175.223L140.653 174.863L140.507 175.223V175.24H140.486H140.435V175.223L140.096 174.415C140.09 174.401 140.087 174.387 140.086 174.373C140.086 174.358 140.089 174.343 140.095 174.33C140.101 174.317 140.109 174.305 140.12 174.295C140.13 174.285 140.143 174.277 140.157 174.272C140.17 174.267 140.184 174.264 140.198 174.264C140.212 174.264 140.225 174.268 140.238 174.273C140.251 174.279 140.262 174.287 140.272 174.298C140.281 174.308 140.288 174.32 140.293 174.333L140.537 174.894L140.683 174.554C140.692 174.535 140.706 174.518 140.724 174.506C140.743 174.495 140.764 174.489 140.785 174.489C140.806 174.489 140.827 174.495 140.846 174.506C140.864 174.518 140.878 174.535 140.887 174.554L141.033 174.894L141.277 174.333C141.282 174.32 141.29 174.308 141.299 174.297C141.309 174.287 141.321 174.279 141.334 174.273C141.347 174.267 141.361 174.264 141.375 174.264C141.389 174.264 141.403 174.267 141.417 174.272C141.427 174.293 141.431 174.317 141.427 174.34C141.423 174.364 141.411 174.385 141.394 174.401C141.377 174.417 141.355 174.427 141.331 174.43C141.308 174.432 141.284 174.427 141.264 174.415Z" fill="#263238"/>
<path d="M141.756 175.138C141.663 175.039 141.612 174.907 141.613 174.771C141.614 174.636 141.664 174.507 141.756 174.408C141.801 174.358 141.856 174.318 141.917 174.29C141.979 174.263 142.045 174.248 142.112 174.248C142.177 174.249 142.241 174.264 142.3 174.291C142.358 174.319 142.41 174.358 142.452 174.408C142.499 174.456 142.536 174.513 142.561 174.575C142.586 174.637 142.599 174.704 142.598 174.771C142.6 174.839 142.588 174.907 142.563 174.97C142.538 175.033 142.5 175.09 142.452 175.138C142.409 175.186 142.357 175.225 142.299 175.252C142.24 175.279 142.177 175.293 142.112 175.294C142.045 175.294 141.979 175.28 141.918 175.253C141.857 175.226 141.801 175.187 141.756 175.138ZM141.837 174.771C141.836 174.851 141.862 174.929 141.912 174.992C141.967 175.041 142.039 175.067 142.112 175.067C142.183 175.067 142.251 175.041 142.303 174.992C142.354 174.931 142.383 174.853 142.383 174.773C142.383 174.693 142.354 174.615 142.303 174.554C142.251 174.506 142.183 174.478 142.112 174.476C142.039 174.478 141.968 174.505 141.912 174.554C141.864 174.616 141.839 174.693 141.841 174.771H141.837Z" fill="#263238"/>
<path d="M143.559 174.36C143.559 174.389 143.548 174.417 143.527 174.437C143.507 174.458 143.479 174.469 143.45 174.469C143.405 174.468 143.361 174.482 143.325 174.51C143.286 174.535 143.253 174.568 143.23 174.608C143.192 174.662 143.163 174.722 143.145 174.785V175.179C143.144 175.193 143.141 175.208 143.135 175.221C143.129 175.235 143.12 175.247 143.11 175.257C143.099 175.267 143.086 175.275 143.072 175.28C143.059 175.285 143.044 175.288 143.029 175.287C143 175.287 142.973 175.276 142.952 175.255C142.932 175.235 142.921 175.207 142.921 175.179V174.36C142.921 174.332 142.932 174.304 142.952 174.284C142.973 174.263 143 174.252 143.029 174.252C143.044 174.251 143.059 174.254 143.072 174.259C143.086 174.264 143.099 174.272 143.11 174.282C143.12 174.292 143.129 174.304 143.135 174.318C143.141 174.331 143.144 174.346 143.145 174.36C143.157 174.344 143.172 174.33 143.189 174.32C143.265 174.265 143.357 174.236 143.45 174.238C143.466 174.238 143.481 174.241 143.495 174.248C143.509 174.254 143.522 174.263 143.532 174.275C143.543 174.286 143.55 174.3 143.555 174.315C143.56 174.329 143.561 174.345 143.559 174.36Z" fill="#263238"/>
<path d="M144.72 175.162C144.72 175.191 144.708 175.22 144.687 175.241C144.666 175.262 144.638 175.274 144.608 175.274C144.582 175.274 144.556 175.266 144.536 175.25C144.516 175.234 144.501 175.211 144.496 175.186C144.413 175.243 144.315 175.274 144.214 175.274C144.076 175.274 143.944 175.219 143.847 175.122C143.749 175.024 143.695 174.892 143.695 174.754C143.695 174.617 143.749 174.484 143.847 174.387C143.944 174.29 144.076 174.235 144.214 174.235C144.314 174.235 144.411 174.266 144.492 174.323V173.933C144.497 173.906 144.511 173.882 144.532 173.864C144.553 173.847 144.579 173.837 144.606 173.837C144.633 173.837 144.66 173.847 144.681 173.864C144.701 173.882 144.715 173.906 144.72 173.933V174.754V175.162ZM144.214 174.483C144.178 174.483 144.142 174.49 144.108 174.505C144.075 174.519 144.045 174.541 144.021 174.568C143.993 174.595 143.971 174.628 143.956 174.664C143.942 174.7 143.935 174.739 143.936 174.778C143.935 174.816 143.942 174.854 143.957 174.889C143.972 174.924 143.993 174.955 144.021 174.982C144.045 175.009 144.075 175.031 144.108 175.046C144.141 175.061 144.177 175.07 144.214 175.07C144.251 175.07 144.288 175.062 144.322 175.046C144.356 175.031 144.386 175.009 144.411 174.982C144.464 174.927 144.493 174.854 144.492 174.778C144.494 174.7 144.465 174.624 144.411 174.568C144.386 174.541 144.355 174.519 144.321 174.505C144.288 174.49 144.251 174.483 144.214 174.483Z" fill="#263238"/>
<path d="M179.115 167.448H135.25V170.928H179.115V167.448Z" fill="#EBEBEB"/>
<path d="M179.115 176.764H135.25V180.245H179.115V176.764Z" fill="#EBEBEB"/>
<path d="M168.915 189.473H145.735V196.844H168.915V189.473Z" fill="#92E3A9"/>
<path d="M152.21 194.193V192.196C152.21 192.147 152.229 192.1 152.264 192.065C152.298 192.03 152.345 192.01 152.394 192.01C152.443 192.01 152.491 192.029 152.527 192.064C152.562 192.099 152.583 192.146 152.584 192.196V194.003H153.5C153.546 194.009 153.588 194.031 153.618 194.066C153.649 194.101 153.665 194.145 153.665 194.191C153.665 194.237 153.649 194.282 153.618 194.316C153.588 194.351 153.546 194.373 153.5 194.379H152.394C152.345 194.379 152.298 194.359 152.264 194.324C152.229 194.289 152.21 194.242 152.21 194.193Z" fill="white"/>
<path d="M155.847 192.305C156.063 192.535 156.183 192.838 156.183 193.154C156.183 193.469 156.063 193.773 155.847 194.003C155.744 194.116 155.62 194.207 155.481 194.269C155.342 194.332 155.191 194.365 155.038 194.366C154.883 194.365 154.729 194.333 154.587 194.27C154.444 194.208 154.316 194.117 154.21 194.003C153.998 193.771 153.88 193.468 153.88 193.154C153.88 192.84 153.998 192.537 154.21 192.305C154.316 192.19 154.444 192.099 154.586 192.037C154.729 191.974 154.883 191.942 155.038 191.942C155.191 191.942 155.342 191.975 155.481 192.037C155.62 192.1 155.745 192.191 155.847 192.305ZM155.802 193.161C155.802 192.941 155.721 192.73 155.575 192.566C155.506 192.492 155.422 192.432 155.329 192.391C155.236 192.35 155.135 192.329 155.033 192.329C154.932 192.329 154.831 192.35 154.738 192.391C154.645 192.432 154.561 192.492 154.492 192.566C154.342 192.728 154.259 192.94 154.261 193.161C154.259 193.379 154.342 193.59 154.492 193.748C154.56 193.825 154.643 193.886 154.736 193.928C154.83 193.97 154.931 193.992 155.033 193.992C155.136 193.992 155.237 193.97 155.33 193.928C155.424 193.886 155.507 193.825 155.575 193.748C155.722 193.587 155.804 193.376 155.802 193.157V193.161Z" fill="white"/>
<path d="M156.753 193.157C156.755 192.995 156.788 192.834 156.852 192.685C156.915 192.535 157.008 192.4 157.124 192.286C157.24 192.172 157.377 192.083 157.528 192.023C157.679 191.962 157.84 191.932 158.003 191.935C158.282 191.935 158.553 192.028 158.773 192.2C158.794 192.215 158.811 192.234 158.824 192.256C158.837 192.278 158.845 192.302 158.848 192.328C158.852 192.353 158.85 192.378 158.844 192.403C158.837 192.428 158.826 192.451 158.811 192.471C158.778 192.511 158.731 192.537 158.68 192.543C158.628 192.549 158.576 192.534 158.536 192.502C158.382 192.386 158.195 192.323 158.003 192.322C157.89 192.319 157.777 192.34 157.672 192.382C157.567 192.424 157.472 192.486 157.391 192.566C157.311 192.642 157.248 192.734 157.205 192.836C157.161 192.937 157.14 193.047 157.14 193.157C157.14 193.266 157.162 193.374 157.206 193.473C157.249 193.573 157.312 193.663 157.391 193.738C157.471 193.818 157.567 193.881 157.672 193.924C157.777 193.966 157.889 193.987 158.003 193.985C158.165 193.984 158.325 193.939 158.464 193.856V193.395H157.982C157.931 193.394 157.883 193.373 157.846 193.337C157.81 193.301 157.79 193.252 157.789 193.201C157.789 193.176 157.794 193.151 157.804 193.128C157.813 193.104 157.828 193.083 157.846 193.065C157.864 193.048 157.885 193.034 157.908 193.024C157.932 193.015 157.957 193.011 157.982 193.011H158.661C158.687 193.01 158.712 193.014 158.736 193.023C158.76 193.033 158.782 193.046 158.8 193.064C158.819 193.082 158.833 193.103 158.843 193.127C158.853 193.15 158.858 193.176 158.858 193.201V193.948C158.86 193.967 158.86 193.987 158.858 194.006V194.023C158.846 194.056 158.824 194.085 158.794 194.104C158.575 194.276 158.305 194.369 158.026 194.369C157.863 194.375 157.7 194.348 157.546 194.29C157.393 194.232 157.253 194.144 157.135 194.031C157.016 193.918 156.921 193.783 156.856 193.633C156.79 193.482 156.755 193.321 156.753 193.157Z" fill="white"/>
<path d="M159.639 192.196C159.639 192.172 159.643 192.148 159.652 192.125C159.661 192.102 159.675 192.082 159.692 192.064C159.709 192.047 159.729 192.033 159.752 192.024C159.774 192.014 159.798 192.01 159.823 192.01C159.872 192.01 159.92 192.029 159.956 192.064C159.991 192.099 160.012 192.146 160.013 192.196V194.193C160.012 194.243 159.991 194.29 159.956 194.325C159.92 194.36 159.872 194.379 159.823 194.379C159.798 194.379 159.774 194.375 159.752 194.365C159.729 194.356 159.709 194.342 159.692 194.325C159.675 194.307 159.661 194.287 159.652 194.264C159.643 194.241 159.639 194.217 159.639 194.193V192.196Z" fill="white"/>
<path d="M161.018 194.193C161.018 194.241 160.999 194.288 160.964 194.322C160.93 194.357 160.883 194.376 160.835 194.376C160.786 194.376 160.739 194.357 160.705 194.322C160.67 194.288 160.651 194.241 160.651 194.193V192.227C160.646 192.185 160.656 192.143 160.678 192.108C160.701 192.072 160.734 192.045 160.774 192.032C160.814 192.018 160.857 192.019 160.897 192.033C160.936 192.048 160.969 192.075 160.991 192.111L162.084 193.622V192.23C162.084 192.182 162.103 192.135 162.138 192.101C162.172 192.066 162.219 192.047 162.267 192.047C162.316 192.047 162.363 192.066 162.398 192.1C162.433 192.135 162.453 192.181 162.454 192.23V194.196C162.454 194.246 162.434 194.293 162.399 194.328C162.364 194.363 162.317 194.383 162.267 194.383C162.241 194.382 162.214 194.376 162.19 194.364C162.166 194.353 162.145 194.336 162.128 194.315L162.111 194.295L161.028 192.79L161.018 194.193Z" fill="white"/>
<mask id="mask0_4546_24497" style="mask-type:luminance" maskUnits="userSpaceOnUse" x="118" y="101" width="80" height="128">
<path d="M197.232 101.472H118.704V228.522H197.232V101.472Z" fill="white"/>
</mask>
<g mask="url(#mask0_4546_24497)">
<path opacity="0.3" d="M166.2 185.838L112.664 228.528H166.2V185.838Z" fill="white"/>
<path d="M82.392 147.978H95.4503L100.237 142.92H121.782" stroke="white" stroke-linecap="round" stroke-linejoin="round"/>
<path d="M122.212 159.282L125.959 154.152H136.328" stroke="white" stroke-linecap="round" stroke-linejoin="round"/>
<path d="M81.7382 159.288H147.104" stroke="white" stroke-linecap="round" stroke-linejoin="round"/>
<path d="M121.782 144.084C122.252 144.084 122.633 143.563 122.633 142.92C122.633 142.277 122.252 141.756 121.782 141.756C121.312 141.756 120.931 142.277 120.931 142.92C120.931 143.563 121.312 144.084 121.782 144.084Z" fill="white"/>
<path d="M147.205 160.23C147.675 160.23 148.056 159.709 148.056 159.066C148.056 158.423 147.675 157.902 147.205 157.902C146.735 157.902 146.354 158.423 146.354 159.066C146.354 159.709 146.735 160.23 147.205 160.23Z" fill="white"/>
<path d="M137.385 153.93C137.385 153.7 137.335 153.475 137.242 153.283C137.148 153.092 137.015 152.943 136.86 152.854C136.704 152.766 136.533 152.743 136.368 152.788C136.203 152.833 136.051 152.944 135.932 153.107C135.813 153.27 135.732 153.477 135.699 153.703C135.666 153.929 135.683 154.163 135.747 154.375C135.812 154.588 135.921 154.77 136.061 154.898C136.201 155.026 136.365 155.094 136.534 155.094C136.76 155.094 136.976 154.971 137.136 154.753C137.295 154.535 137.385 154.239 137.385 153.93Z" fill="white"/>
<path d="M122.313 153.294C122.783 153.294 123.164 152.773 123.164 152.13C123.164 151.487 122.783 150.966 122.313 150.966C121.843 150.966 121.461 151.487 121.461 152.13C121.461 152.773 121.843 153.294 122.313 153.294Z" fill="white"/>
<path d="M122.844 171.822C123.314 171.822 123.695 171.301 123.695 170.658C123.695 170.015 123.314 169.494 122.844 169.494C122.374 169.494 121.992 170.015 121.992 170.658C121.992 171.301 122.374 171.822 122.844 171.822Z" fill="white"/>
<path d="M121.896 181.8C121.896 181.57 121.846 181.345 121.752 181.153C121.659 180.962 121.526 180.813 121.37 180.725C121.215 180.636 121.044 180.613 120.879 180.658C120.713 180.703 120.562 180.814 120.443 180.977C120.324 181.14 120.243 181.347 120.21 181.573C120.177 181.799 120.194 182.033 120.258 182.245C120.323 182.458 120.432 182.64 120.572 182.768C120.712 182.896 120.876 182.964 121.045 182.964C121.27 182.964 121.487 182.841 121.647 182.623C121.806 182.405 121.896 182.109 121.896 181.8Z" fill="white"/>
<path d="M136.161 185.586C136.631 185.586 137.012 185.065 137.012 184.422C137.012 183.779 136.631 183.258 136.161 183.258C135.691 183.258 135.31 183.779 135.31 184.422C135.31 185.065 135.691 185.586 136.161 185.586Z" fill="white"/>
<path d="M82.392 170.898H92.1857L96.5384 176.85H120.04L130.053 184.584H135.928" stroke="white" stroke-linecap="round" stroke-linejoin="round"/>
<path d="M82.1726 181.908H87.833L92.5104 188.304H106.982L111.606 181.98H120.694" stroke="white" stroke-linecap="round" stroke-linejoin="round"/>
<path d="M91.9663 159.288L97.0826 152.298H122.216" stroke="white" stroke-linecap="round" stroke-linejoin="round"/>
<path d="M92.1857 170.898H122.655" stroke="white" stroke-linecap="round" stroke-linejoin="round"/>
</g>
<path d="M197.232 101.472H118.704V228.522H197.232V101.472Z" stroke="#263238" stroke-linecap="round" stroke-linejoin="round"/>
<path d="M166.506 92.58H149.43C149.121 92.58 148.825 92.4573 148.607 92.239C148.389 92.0207 148.266 91.7247 148.266 91.416C148.266 91.1072 148.389 90.8112 148.607 90.5929C148.825 90.3746 149.121 90.252 149.43 90.252H166.506C166.815 90.252 167.111 90.3746 167.329 90.5929C167.547 90.8112 167.67 91.1072 167.67 91.416C167.67 91.7247 167.547 92.0207 167.329 92.239C167.111 92.4573 166.815 92.58 166.506 92.58Z" fill="#263238"/>
<path d="M162.6 235.698C162.6 234.777 162.327 233.877 161.815 233.111C161.304 232.346 160.577 231.749 159.726 231.396C158.875 231.044 157.939 230.952 157.036 231.131C156.133 231.311 155.303 231.755 154.652 232.406C154.001 233.057 153.557 233.886 153.378 234.79C153.198 235.693 153.29 236.629 153.643 237.48C153.995 238.331 154.592 239.058 155.357 239.569C156.123 240.081 157.023 240.354 157.944 240.354C159.178 240.352 160.362 239.861 161.235 238.989C162.107 238.116 162.598 236.932 162.6 235.698Z" fill="white" stroke="#263238" stroke-width="0.704333" stroke-linecap="round" stroke-linejoin="round"/>
<path d="M160.326 233.34H155.604V238.062H160.326V233.34Z" fill="#263238"/>
<path d="M29.772 246.402H272.262" stroke="#263238" stroke-linecap="round" stroke-linejoin="round"/>
</svg>
