<svg width="10" height="13" viewBox="0 0 10 13" fill="none" xmlns="http://www.w3.org/2000/svg">
<path d="M1.11478 12.8689C1.06009 12.8689 1.0054 12.8643 0.950716 12.8552C0.896028 12.837 0.845898 12.8188 0.800325 12.8005H0.813997C0.695507 12.7458 0.599804 12.6638 0.526887 12.5544C0.463085 12.4451 0.431184 12.322 0.431184 12.1853V1.30249C0.431184 1.16577 0.463085 1.04728 0.526887 0.947021C0.599804 0.837646 0.69095 0.751058 0.800325 0.687256H0.813997C0.850455 0.669027 0.896028 0.655355 0.950716 0.64624C1.0054 0.628011 1.06009 0.618896 1.11478 0.618896C1.18769 0.618896 1.25605 0.632568 1.31986 0.659912C1.39277 0.678141 1.45657 0.710042 1.51126 0.755615L8.77103 6.19702C8.85306 6.26082 8.91686 6.34285 8.96243 6.44312C9.01712 6.53426 9.04447 6.63452 9.04447 6.7439C9.04447 6.85327 9.01712 6.95809 8.96243 7.05835C8.91686 7.1495 8.85306 7.22697 8.77103 7.29077L1.51126 12.7322C1.45657 12.7778 1.39277 12.8142 1.31986 12.8416C1.25605 12.8598 1.18769 12.8689 1.11478 12.8689C1.11478 12.8689 1.11022 12.8689 1.10111 12.8689H1.11478ZM1.7847 2.65601V10.8318L7.23978 6.7439L1.7847 2.65601Z" fill="#6C757D"/>
</svg>
