<svg width="10" height="13" viewBox="0 0 10 13" fill="none" xmlns="http://www.w3.org/2000/svg">
<path d="M8.36087 12.8689C8.28796 12.8689 8.21504 12.8598 8.14212 12.8416C8.07832 12.8142 8.01452 12.7778 7.95072 12.7322H7.96439L0.704622 7.29077C0.622591 7.22697 0.554231 7.1495 0.499544 7.05835C0.453971 6.95809 0.431184 6.85327 0.431184 6.7439C0.431184 6.63452 0.453971 6.53426 0.499544 6.44312C0.554231 6.34285 0.622591 6.26082 0.704622 6.19702L7.96439 0.755615C8.01907 0.710042 8.07832 0.678141 8.14212 0.659912C8.21504 0.632568 8.29251 0.618896 8.37454 0.618896C8.42923 0.618896 8.47936 0.628011 8.52493 0.64624C8.57962 0.655355 8.62975 0.669027 8.67532 0.687256C8.7847 0.751058 8.87129 0.837646 8.93509 0.947021C9.00801 1.04728 9.04447 1.16577 9.04447 1.30249V12.1853C9.04447 12.322 9.00801 12.4451 8.93509 12.5544C8.87129 12.6547 8.7847 12.7322 8.67532 12.7869V12.8005C8.62975 12.8188 8.57962 12.837 8.52493 12.8552C8.47936 12.8643 8.42923 12.8689 8.37454 12.8689H8.36087ZM2.24954 6.7439L7.69095 10.8318V2.65601L2.24954 6.7439Z" fill="#6C757D"/>
</svg>
