<svg width="9" height="15" viewBox="0 0 9 15" fill="none" xmlns="http://www.w3.org/2000/svg">
<path d="M8.23782 14.3064C8.05553 14.3064 7.90059 14.2426 7.77298 14.115C7.64538 13.9874 7.58157 13.8324 7.58157 13.6501V1.40015C7.58157 1.21785 7.64538 1.06291 7.77298 0.935303C7.90059 0.807699 8.05553 0.743896 8.23782 0.743896C8.42012 0.743896 8.57506 0.807699 8.70267 0.935303C8.83027 1.06291 8.89407 1.21785 8.89407 1.40015V13.6501C8.89407 13.8324 8.83027 13.9874 8.70267 14.115C8.57506 14.2426 8.42012 14.3064 8.23782 14.3064ZM1.23782 14.7439C1.19225 14.7439 1.14668 14.7393 1.10111 14.7302C1.05553 14.7211 1.01452 14.7074 0.978059 14.6892C0.85957 14.6436 0.763867 14.5662 0.69095 14.4568C0.618033 14.3474 0.581575 14.2244 0.581575 14.0876V1.83765C0.581575 1.70093 0.618033 1.57788 0.69095 1.46851C0.763867 1.35913 0.85957 1.28166 0.978059 1.23608C1.02363 1.21785 1.06465 1.20418 1.10111 1.19507C1.14668 1.18595 1.19225 1.1814 1.23782 1.1814C1.32897 1.1814 1.411 1.19963 1.48392 1.23608C1.56595 1.27254 1.63887 1.31812 1.70267 1.3728L7.82767 7.4978C7.88236 7.5616 7.92793 7.63452 7.96439 7.71655C8.00085 7.78947 8.01907 7.8715 8.01907 7.96265C8.01907 8.05379 8.00085 8.14038 7.96439 8.22241C7.92793 8.29533 7.88236 8.36369 7.82767 8.42749L1.70267 14.5525C1.63887 14.6072 1.56595 14.6528 1.48392 14.6892C1.411 14.7257 1.32897 14.7439 1.23782 14.7439ZM1.89407 3.42358V12.5017L6.43314 7.96265L1.89407 3.42358Z" fill="#6C757D"/>
</svg>
