<svg width="9" height="15" viewBox="0 0 9 15" fill="none" xmlns="http://www.w3.org/2000/svg">
<path d="M1.23782 14.3064C1.05553 14.3064 0.900585 14.2426 0.772981 14.115C0.645377 13.9874 0.581575 13.8324 0.581575 13.6501V1.40015C0.581575 1.21785 0.645377 1.06291 0.772981 0.935303C0.900585 0.807699 1.05553 0.743896 1.23782 0.743896C1.42012 0.743896 1.57506 0.807699 1.70267 0.935303C1.83027 1.06291 1.89407 1.21785 1.89407 1.40015V13.6501C1.89407 13.8324 1.83027 13.9874 1.70267 14.115C1.57506 14.2426 1.42012 14.3064 1.23782 14.3064ZM8.23782 14.7439C8.14668 14.7439 8.06009 14.7257 7.97806 14.6892C7.90514 14.6528 7.83678 14.6072 7.77298 14.5525L1.64798 8.42749C1.59329 8.36369 1.54772 8.29533 1.51126 8.22241C1.4748 8.14038 1.45657 8.05379 1.45657 7.96265C1.45657 7.8715 1.4748 7.78947 1.51126 7.71655C1.54772 7.63452 1.59329 7.5616 1.64798 7.4978L7.77298 1.3728C7.83678 1.31812 7.90514 1.27254 7.97806 1.23608C8.06009 1.19963 8.14668 1.1814 8.23782 1.1814C8.42012 1.1814 8.57506 1.2452 8.70267 1.3728C8.83027 1.50041 8.89407 1.65535 8.89407 1.83765V14.0876C8.89407 14.2244 8.85762 14.3474 8.7847 14.4568C8.71178 14.5662 8.61608 14.6436 8.49759 14.6892C8.45202 14.7074 8.40644 14.7211 8.36087 14.7302C8.32441 14.7393 8.2834 14.7439 8.23782 14.7439ZM3.04251 7.96265L7.58157 12.5017V3.42358L3.04251 7.96265Z" fill="#6C757D"/>
</svg>
