<svg width="68" height="22" viewBox="0 0 68 22" fill="none" xmlns="http://www.w3.org/2000/svg">
<path d="M25.75 19L25.75 4H27.25L27.25 19H25.75ZM42.25 4V19H40.75V4L42.25 4ZM39.5 21.75H28.5V20.25H39.5V21.75ZM42.25 19C42.25 20.5188 41.0188 21.75 39.5 21.75V20.25C40.1904 20.25 40.75 19.6904 40.75 19H42.25ZM27.25 19C27.25 19.6904 27.8096 20.25 28.5 20.25V21.75C26.9812 21.75 25.75 20.5188 25.75 19H27.25Z" fill="#697586"/>
<path d="M32 10V15" stroke="#697586" stroke-width="1.5" stroke-linecap="round"/>
<path d="M36 10V15" stroke="#697586" stroke-width="1.5" stroke-linecap="round"/>
<path d="M24.5 4H43.5" stroke="#697586" stroke-width="1.5" stroke-linecap="round"/>
<path d="M29 4L29.2215 2.6712C29.3822 1.70683 30.2166 1 31.1943 1H34H36.8057C37.7834 1 38.6178 1.70683 38.7785 2.6712L39 4" stroke="#697586" stroke-width="1.5" stroke-linecap="round"/>
</svg>
