<svg width="184" height="102" viewBox="0 0 184 102" fill="none" xmlns="http://www.w3.org/2000/svg">
<path d="M174.498 55.2012H139.443C137.793 55.2403 136.212 55.8678 134.984 56.9705C133.757 58.0732 132.964 59.5784 132.749 61.2144L128.448 99.2291H169.501L174.498 55.2012Z" fill="white" stroke="#263238" stroke-linecap="round" stroke-linejoin="round"/>
<path d="M174.682 55.2014C173.311 55.2337 171.998 55.7551 170.978 56.6715C169.958 57.5879 169.3 58.8388 169.122 60.1981L164.7 99.2294H174.686L179.112 60.1981C179.203 59.5689 179.156 58.9275 178.973 58.3184C178.791 57.7093 178.478 57.1473 178.056 56.6716C177.635 56.1959 177.114 55.8179 176.531 55.564C175.949 55.31 175.317 55.1863 174.682 55.2014Z" fill="#263238" stroke="#263238" stroke-linecap="round" stroke-linejoin="round"/>
<path d="M128.086 43.7805C125.622 45.5395 122.959 47.0015 120.153 48.136C115.176 50.2081 113.174 50.8337 113.174 50.8337L114.554 98.4548H150.688C150.688 98.4548 146.055 68.5958 146.055 58.5751C146.055 48.5543 146.469 46.5994 146.469 46.5994L134.584 43.5576L128.086 43.7805Z" fill="#44CE6F" stroke="#263238" stroke-linecap="round" stroke-linejoin="round"/>
<path d="M124.144 45.7871C123.017 53.8752 122.349 62.0205 122.142 70.1841C121.935 82.4178 124.285 98.7255 124.285 98.7255H97.8115C101.104 92.4979 103.458 85.8183 104.798 78.9029C106.753 68.9994 108.317 52.2109 108.732 52.0036C109.146 51.7964 123.178 46.6003 124.144 45.7871Z" fill="#263238" stroke="#263238" stroke-linecap="round" stroke-linejoin="round"/>
<path d="M112.122 98.7287C112.122 98.7287 109.424 80.4818 109.561 76.1966C109.698 71.9115 110.378 57.3984 110.378 57.3984" stroke="#616161" stroke-linecap="round" stroke-linejoin="round"/>
<path d="M139.005 44.543C139.005 44.543 135.619 60.0921 135.342 72.881C135.064 85.6699 134.169 98.7989 134.169 98.7989H155.575C155.575 98.7989 155.853 87.1165 155.575 83.109C155.297 79.1015 155.297 79.9303 155.297 79.9303L163.594 82.0729C163.594 82.0729 158.269 56.4287 157.303 53.598C156.337 50.7673 156.818 49.8642 156.197 49.3794C155.575 48.8945 139.005 44.543 139.005 44.543Z" fill="#263238" stroke="#263238" stroke-linecap="round" stroke-linejoin="round"/>
<path d="M100.342 88.1562C100.9 89.0117 101.556 89.799 102.297 90.5021C103.247 91.3153 105.284 90.8931 106.367 92.0035C107.45 93.1138 106.265 96.5036 104.897 97.6883C102.551 99.7096 103.794 93.5752 103.794 93.5752C102.967 94.1422 102.053 94.5713 101.089 94.8459C99.7595 95.1508 96.3384 94.1108 95.1929 94.0639C94.0473 94.017 92.456 93.798 91.8461 92.5235C91.2362 91.2489 95.0209 89.7123 96.7021 89.1024C97.8895 88.6947 99.1064 88.3784 100.342 88.1562Z" fill="white" stroke="#263238" stroke-linecap="round" stroke-linejoin="round"/>
<path d="M93.1004 89.9553C92.7389 89.8589 92.357 89.8705 92.002 89.9886C91.6469 90.1067 91.3343 90.3262 91.1025 90.62C90.3206 91.6483 88.7567 96.2931 89.2141 97.1884C89.6716 98.0837 90.8562 96.8287 91.4192 95.3547C91.6593 94.6444 91.9794 93.9636 92.3732 93.3256C92.3732 93.3256 92.991 93.6266 93.4249 92.8212C93.8589 92.0158 94.2968 90.8077 93.1004 89.9553Z" fill="white" stroke="#263238" stroke-linecap="round" stroke-linejoin="round"/>
<path d="M95.3131 89.1458C94.9343 88.9278 94.4918 88.8476 94.0606 88.9189C93.6294 88.9902 93.2362 89.2085 92.9477 89.5368C91.849 90.7097 92.6036 95.6399 93.1862 97.1491C93.7687 98.6583 94.8713 98.4706 95.0355 97.5401C95.1997 96.6096 95.3874 91.9687 95.446 90.8935C95.4945 90.3075 95.4497 89.7176 95.3131 89.1458Z" fill="white" stroke="#263238" stroke-linecap="round" stroke-linejoin="round"/>
<path d="M97.6593 88.6136C97.2854 88.3783 96.8382 88.2881 96.4023 88.3601C95.9665 88.4322 95.5721 88.6615 95.2939 89.0046C94.203 90.244 95.0084 95.4597 95.6066 97.0627C96.2048 98.6657 97.3074 98.478 97.4638 97.481C97.6202 96.484 97.7609 91.5851 97.8078 90.4434C97.8478 89.8295 97.7977 89.2131 97.6593 88.6136Z" fill="white" stroke="#263238" stroke-linecap="round" stroke-linejoin="round"/>
<path d="M101.092 89.247C101.092 89.247 100.181 87.21 98.6956 87.5463C97.2099 87.8825 96.7407 89.8921 97.0144 92.9417C97.2881 95.9914 97.8589 98.4154 98.6878 98.5014C99.5167 98.5875 100.42 96.746 100.584 94.3649C100.748 91.9839 100.995 90.5607 100.995 90.5607" fill="white"/>
<path d="M101.092 89.247C101.092 89.247 100.181 87.21 98.6956 87.5463C97.2099 87.8825 96.7407 89.8921 97.0144 92.9417C97.2881 95.9914 97.8589 98.4154 98.6878 98.5014C99.5167 98.5875 100.42 96.746 100.584 94.3649C100.748 91.9839 100.995 90.5607 100.995 90.5607" stroke="#263238" stroke-linecap="round" stroke-linejoin="round"/>
<path d="M120.195 67.9346H110.979V82.0801H120.195V67.9346Z" fill="#44CE6F" stroke="#263238" stroke-linecap="round" stroke-linejoin="round"/>
<path d="M116.23 63.8145H114.533V70.3594H116.23V63.8145Z" fill="white" stroke="#263238" stroke-linecap="round" stroke-linejoin="round"/>
<path d="M117.2 71.8955H113.239V77.0681H117.2V71.8955Z" fill="white" stroke="#263238" stroke-linecap="round" stroke-linejoin="round"/>
<path d="M112.595 78.6055H118.01" stroke="#263238" stroke-linecap="round" stroke-linejoin="round"/>
<path d="M111.785 79.7354H118.737" stroke="#263238" stroke-linecap="round" stroke-linejoin="round"/>
<path d="M127.119 41.779C127.119 41.779 124.144 43.7808 123.601 45.3721C123.057 46.9634 120.766 53.7351 119.867 56.2921C118.968 58.8491 113.854 61.062 114.546 61.5468C115.238 62.0316 121.943 62.6494 121.943 62.6494C121.943 62.6494 123.464 68.5961 123.808 70.1171C124.152 71.638 126.228 76.2671 126.228 76.2671C126.228 76.2671 132.378 68.8698 133.348 66.8837C134.014 65.5405 134.776 64.247 135.627 63.013C135.627 63.013 138.254 63.6346 139.928 63.9122C141.601 64.1898 146.148 64.6004 145.941 63.8419C145.734 63.0834 143.454 59.764 142.555 56.5149C141.656 53.2659 142.207 46.1462 141.105 43.382C140.002 40.6178 137.586 40.2034 136.749 39.9961C135.913 39.7889 128.363 40.6022 127.119 41.779Z" fill="#44CE6F" stroke="#263238" stroke-linecap="round" stroke-linejoin="round"/>
<path d="M126.151 39.6371C126.151 39.6371 127.05 44.6807 126.933 48.7586C126.815 52.8365 125.341 61.9619 125.412 66.6614C125.482 69.7832 125.735 72.8981 126.17 75.9902C126.17 75.9902 132.946 66.6614 135.432 59.0569C137.919 51.4524 138.611 44.9583 138.611 44.4735C138.611 43.9887 138.748 32.7246 138.748 32.7246C138.748 32.7246 131.542 40.2587 126.151 39.6371Z" fill="white" stroke="#263238" stroke-linecap="round" stroke-linejoin="round"/>
<path d="M138.672 37.5063C138.7 34.9727 138.727 32.7246 138.727 32.7246C138.727 32.7246 131.541 40.2587 126.149 39.6371C126.149 39.6371 126.404 41.0563 126.619 42.9995C127.324 43.4826 128.107 43.841 128.933 44.059C131.428 44.5595 134.223 43.1637 136.119 40.767C136.819 39.8834 137.746 38.6792 138.672 37.5063Z" fill="#263238" stroke="#263238" stroke-linecap="round" stroke-linejoin="round"/>
<path d="M143.603 14.6138C147.401 14.6138 150.48 11.5663 150.48 7.80692C150.48 4.04756 147.401 1 143.603 1C139.805 1 136.726 4.04756 136.726 7.80692C136.726 11.5663 139.805 14.6138 143.603 14.6138Z" fill="#263238" stroke="#263238" stroke-linecap="round" stroke-linejoin="round"/>
<path d="M115.754 19.7008C115.754 19.7008 112.063 18.6999 111.453 16.7059C110.843 14.7119 113.052 7.71345 120.238 4.12819C127.424 0.542927 134.016 2.5291 136.909 3.32669C139.803 4.12429 141.902 5.62563 143.798 10.9156C145.695 16.2055 145.792 20.299 145.194 22.293C144.839 23.4853 144.405 24.6529 143.896 25.7883C143.896 25.7883 140.205 26.1793 139.204 24.6897C138.204 23.2001 138.606 15.6972 134.313 13.9104C130.02 12.1237 121.837 13.1285 119.847 14.9074C117.857 16.6864 115.754 19.7008 115.754 19.7008Z" fill="#263238" stroke="#263238" stroke-linecap="round" stroke-linejoin="round"/>
<path d="M115.154 18.4017C115.154 18.4017 116.054 24.0904 116.054 27.183C116.054 30.2757 118.548 34.5725 119.846 35.7846C121.144 36.9966 125.437 41.0745 127.931 41.5749C130.426 42.0754 133.221 40.6757 135.118 38.279C137.014 35.8823 140.709 31.0928 140.709 31.0928C141.532 31.1846 142.362 30.9855 143.055 30.53C143.747 30.0744 144.259 29.3912 144.501 28.5984C145.502 25.7012 145.002 22.4092 143.305 22.0104C141.608 21.6116 140.411 23.6056 140.411 23.6056C140.411 23.6056 139.012 18.2179 137.217 15.5202L134.621 11.6104L137.933 7.46996C137.969 7.42498 137.995 7.37305 138.011 7.3174C138.026 7.26174 138.03 7.20354 138.022 7.14638C138.014 7.08921 137.994 7.03431 137.964 6.98507C137.934 6.93582 137.894 6.89326 137.847 6.86004C137.758 6.79623 137.647 6.76916 137.539 6.78445C137.43 6.79973 137.332 6.85621 137.264 6.94215L134.023 11.1139C134.023 11.1139 127.634 10.0152 122.043 12.8107C116.452 15.6062 115.154 18.4017 115.154 18.4017Z" fill="white" stroke="#263238" stroke-linecap="round" stroke-linejoin="round"/>
<path d="M135.666 24.0215L134.767 25.2218" stroke="#263238" stroke-linecap="round" stroke-linejoin="round"/>
<path d="M123.343 30.8782C123.343 30.8782 123.542 31.4764 124.84 31.7774C125.446 31.9183 126.079 31.8802 126.664 31.6679C127.248 31.4555 127.758 31.0779 128.132 30.5811" stroke="#263238" stroke-linecap="round" stroke-linejoin="round"/>
<path d="M124.844 34.0878C126.075 34.3655 127.356 34.3183 128.564 33.9509C129.771 33.5835 130.861 32.9085 131.729 31.9922C131.729 31.9922 130.834 35.7847 129.035 36.4845C127.237 37.1844 127.139 35.2842 127.139 35.2842L124.844 34.0878Z" stroke="#263238" stroke-linecap="round" stroke-linejoin="round"/>
<path d="M128.433 26.4877C129.26 25.709 130.266 25.1466 131.363 24.8506C132.46 24.5545 133.613 24.534 134.72 24.7909" stroke="#263238" stroke-width="2" stroke-linecap="round" stroke-linejoin="round"/>
<path d="M121.943 26.2882C121.943 26.2882 119.749 24.0909 117.45 25.2873" stroke="#263238" stroke-width="2" stroke-linecap="round" stroke-linejoin="round"/>
<path d="M116.755 24.791L117.85 25.8897" stroke="#263238" stroke-linecap="round" stroke-linejoin="round"/>
<path d="M127.733 21.0955C127.733 21.0955 130.709 17.6667 135.009 20.8961" stroke="#263238" stroke-linecap="round" stroke-linejoin="round"/>
<path d="M121.744 20.9947C121.744 20.9947 119.05 18.8991 116.353 21.2958" stroke="#263238" stroke-linecap="round" stroke-linejoin="round"/>
<path d="M130.783 25.952C130.787 26.0494 130.761 26.1458 130.709 26.2284C130.657 26.3111 130.582 26.3762 130.493 26.4153C130.403 26.4544 130.304 26.4656 130.208 26.4475C130.113 26.4295 130.024 26.3829 129.955 26.314C129.887 26.245 129.84 26.1568 129.822 26.061C129.804 25.9652 129.815 25.8661 129.854 25.7768C129.893 25.6874 129.958 25.612 130.041 25.5602C130.124 25.5085 130.22 25.4829 130.317 25.4867C130.439 25.4915 130.555 25.5421 130.641 25.6283C130.727 25.7146 130.778 25.8301 130.783 25.952Z" fill="#263238"/>
<path d="M119.37 25.5336C119.371 25.6297 119.343 25.7238 119.29 25.804C119.237 25.8843 119.162 25.947 119.073 25.9843C118.985 26.0216 118.887 26.0318 118.793 26.0135C118.699 25.9953 118.612 25.9494 118.544 25.8817C118.476 25.8141 118.429 25.7277 118.41 25.6336C118.391 25.5394 118.4 25.4417 118.437 25.3529C118.473 25.2641 118.536 25.1882 118.615 25.1347C118.695 25.0813 118.789 25.0527 118.885 25.0527C119.013 25.0527 119.136 25.1033 119.227 25.1933C119.317 25.2834 119.369 25.4057 119.37 25.5336Z" fill="#263238"/>
<path d="M142.957 15.7988C142.957 15.7988 143.302 20.2912 142.473 23.677L143.786 24.0915C143.786 24.0915 144.822 18.9071 144.338 16.006L142.957 15.7988Z" fill="#44CE6F" stroke="#263238" stroke-linecap="round" stroke-linejoin="round"/>
<path d="M134.028 2.6582C135.474 3.3794 136.762 4.37994 137.818 5.602C138.874 6.82406 139.678 8.24338 140.182 9.7779C141.77 14.8919 141.562 16.4832 142.528 17.0344C143.494 17.5857 145.363 17.9337 145.429 16.6904C145.496 15.4471 145.066 9.89911 142.301 6.4585C140.229 3.83896 135.756 2.72858 134.028 2.6582Z" fill="#44CE6F" stroke="#263238" stroke-linecap="round" stroke-linejoin="round"/>
<path d="M143.506 22.6874C141.516 22.0775 139.33 23.4694 138.618 25.78C137.962 27.9187 138.798 30.1003 140.495 30.9058C139.249 34.0714 137.396 36.9628 135.041 39.4173C134.582 39.3608 134.119 39.478 133.743 39.7458C133.031 40.2267 132.719 41.0125 133.051 41.5052C133.383 41.9978 134.224 42.0056 134.939 41.5286C135.655 41.0516 135.909 40.3557 135.682 39.8787C138.091 37.3648 139.98 34.4007 141.242 31.156C143.142 31.547 145.152 30.1864 145.82 27.9852C146.532 25.6706 145.496 23.2973 143.506 22.6874Z" fill="#44CE6F" stroke="#263238" stroke-linecap="round" stroke-linejoin="round"/>
<path d="M145.194 27.2079C144.858 28.6858 143.525 29.6476 142.215 29.3504C140.905 29.0533 140.115 27.6106 140.451 26.1327C140.788 24.6548 142.121 23.693 143.431 23.9862C144.74 24.2795 145.53 25.7261 145.194 27.2079Z" fill="#44CE6F" stroke="#263238" stroke-linecap="round" stroke-linejoin="round"/>
<path d="M144.811 51.5921C144.811 51.5921 142.876 46.7557 142.465 45.8565C142.055 44.9573 145.437 39.636 145.984 38.8736C146.531 38.1112 147.571 36.5278 147.571 36.1798C147.571 35.8318 143.634 31.9612 142.801 31.3395C141.969 30.7179 140.592 32.1215 140.592 32.1215C140.592 32.1215 136.999 36.8914 136.999 37.4427C136.999 37.9939 138.724 39.7221 138.724 39.7221C138.724 39.7221 136.03 43.5927 136.378 45.1136C136.726 46.6345 138.106 47.9482 138.106 47.9482L140.041 55.412L144.811 51.5921Z" fill="white" stroke="#263238" stroke-linecap="round" stroke-linejoin="round"/>
<path d="M138.728 39.7024C138.728 39.7024 141.073 37.8374 140.87 37.2861C140.79 37.1225 140.66 36.9879 140.5 36.9011C140.339 36.8142 140.156 36.7793 139.975 36.8013" stroke="#263238" stroke-linecap="round" stroke-linejoin="round"/>
<path d="M140.39 32.7246C140.597 32.7246 146.677 36.7321 146.54 37.4163C146.419 37.9215 146.234 38.409 145.988 38.8669" stroke="#263238" stroke-linecap="round" stroke-linejoin="round"/>
<path d="M141.081 32.1025C141.081 32.1025 146.817 35.6956 146.946 36.3173C146.971 36.5215 146.947 36.7289 146.875 36.9216C146.803 37.1143 146.685 37.2867 146.531 37.4237" stroke="#263238" stroke-linecap="round" stroke-linejoin="round"/>
<path d="M141.703 31.4814C141.703 31.4814 147.716 35.5593 147.568 36.1732C147.403 36.6764 147.146 37.1444 146.809 37.5533" stroke="#263238" stroke-linecap="round" stroke-linejoin="round"/>
<path d="M145.64 51.041L136.378 56.374C136.378 56.374 148.404 84.9857 150.617 88.8564C152.83 92.727 158.773 93.6263 161.885 92.5902C164.997 91.5541 166.514 85.3337 165.478 82.7063C164.442 80.0789 156.975 68.5959 153.385 62.8564C149.796 57.1168 145.64 51.041 145.64 51.041Z" fill="#263238" stroke="#263238" stroke-linecap="round" stroke-linejoin="round"/>
<path d="M140.745 66.1484C140.745 66.1484 150.911 85.6973 153.514 89.6071" stroke="#616161" stroke-linecap="round" stroke-linejoin="round"/>
<path d="M146.478 53.3594L160.815 75.2541" stroke="#616161" stroke-linecap="round" stroke-linejoin="round"/>
<path d="M97 24.6035V5.74218C97 5.01491 96.6296 4.31742 95.9704 3.80316C95.3112 3.2889 94.4171 3 93.4848 3H34.5152C33.5829 3 32.6888 3.2889 32.0296 3.80316C31.3704 4.31742 31 5.01491 31 5.74218V24.6035C31 25.3308 31.3704 26.0283 32.0296 26.5425C32.6888 27.0568 33.5829 27.3457 34.5152 27.3457H85.155L96.6845 36L94.3786 27.2461C95.1277 27.0925 95.7908 26.7501 96.2648 26.2722C96.7389 25.7944 96.9973 25.2077 97 24.6035Z" fill="white" stroke="#263238" stroke-linecap="round" stroke-linejoin="round"/>
<path d="M37.0098 11.0469L39.4023 14.8613L41.7949 11.0469H43.333L40.1885 15.9756L43.4082 21H41.8564L39.4023 17.1104L36.9482 21H35.3965L38.6162 15.9756L35.4717 11.0469H37.0098ZM46.1152 13.6035V21H44.8438V13.6035H46.1152ZM44.748 11.6416C44.748 11.4365 44.8096 11.2633 44.9326 11.1221C45.0602 10.9808 45.2471 10.9102 45.4932 10.9102C45.7347 10.9102 45.9193 10.9808 46.0469 11.1221C46.179 11.2633 46.2451 11.4365 46.2451 11.6416C46.2451 11.8376 46.179 12.0062 46.0469 12.1475C45.9193 12.2842 45.7347 12.3525 45.4932 12.3525C45.2471 12.3525 45.0602 12.2842 44.9326 12.1475C44.8096 12.0062 44.748 11.8376 44.748 11.6416ZM49.4102 15.1826V21H48.1455V13.6035H49.3418L49.4102 15.1826ZM49.1094 17.0215L48.583 17.001C48.5876 16.4951 48.6628 16.028 48.8086 15.5996C48.9544 15.1667 49.1595 14.7907 49.4238 14.4717C49.6882 14.1527 50.0026 13.9066 50.3672 13.7334C50.7363 13.5557 51.1442 13.4668 51.5908 13.4668C51.9554 13.4668 52.2835 13.5169 52.5752 13.6172C52.8669 13.7129 53.1152 13.8678 53.3203 14.082C53.5299 14.2962 53.6895 14.5742 53.7988 14.916C53.9082 15.2533 53.9629 15.6657 53.9629 16.1533V21H52.6914V16.1396C52.6914 15.7523 52.6344 15.4424 52.5205 15.21C52.4066 14.973 52.2402 14.8021 52.0215 14.6973C51.8027 14.5879 51.5339 14.5332 51.2148 14.5332C50.9004 14.5332 50.6133 14.5993 50.3535 14.7314C50.0983 14.8636 49.8773 15.0459 49.6904 15.2783C49.5081 15.5107 49.3646 15.7773 49.2598 16.0781C49.1595 16.3743 49.1094 16.6888 49.1094 17.0215ZM62.3164 20.0977C62.6172 20.0977 62.8952 20.0361 63.1504 19.9131C63.4056 19.79 63.6152 19.6214 63.7793 19.4072C63.9434 19.1885 64.0368 18.9401 64.0596 18.6621H65.2627C65.2399 19.0996 65.0918 19.5075 64.8184 19.8857C64.5495 20.2594 64.1963 20.5625 63.7588 20.7949C63.3213 21.0228 62.8405 21.1367 62.3164 21.1367C61.7604 21.1367 61.2751 21.0387 60.8604 20.8428C60.4502 20.6468 60.1084 20.3779 59.835 20.0361C59.5661 19.6943 59.3633 19.3024 59.2266 18.8604C59.0944 18.4137 59.0283 17.9421 59.0283 17.4453V17.1582C59.0283 16.6615 59.0944 16.1921 59.2266 15.75C59.3633 15.3034 59.5661 14.9092 59.835 14.5674C60.1084 14.2256 60.4502 13.9567 60.8604 13.7607C61.2751 13.5648 61.7604 13.4668 62.3164 13.4668C62.8952 13.4668 63.401 13.5853 63.834 13.8223C64.2669 14.0547 64.6064 14.3737 64.8525 14.7793C65.1032 15.1803 65.2399 15.6361 65.2627 16.1465H64.0596C64.0368 15.8411 63.9502 15.5654 63.7998 15.3193C63.654 15.0732 63.4535 14.8773 63.1982 14.7314C62.9476 14.5811 62.6536 14.5059 62.3164 14.5059C61.929 14.5059 61.6032 14.5833 61.3389 14.7383C61.0791 14.8887 60.8717 15.0938 60.7168 15.3535C60.5664 15.6087 60.457 15.8936 60.3887 16.208C60.3249 16.5179 60.293 16.8346 60.293 17.1582V17.4453C60.293 17.7689 60.3249 18.0879 60.3887 18.4023C60.4525 18.7168 60.5596 19.0016 60.71 19.2568C60.8649 19.512 61.0723 19.7171 61.332 19.8721C61.5964 20.0225 61.9245 20.0977 62.3164 20.0977ZM67.9492 10.5V21H66.6846V10.5H67.9492ZM67.6484 17.0215L67.1221 17.001C67.1266 16.4951 67.2018 16.028 67.3477 15.5996C67.4935 15.1667 67.6986 14.7907 67.9629 14.4717C68.2272 14.1527 68.5417 13.9066 68.9062 13.7334C69.2754 13.5557 69.6833 13.4668 70.1299 13.4668C70.4945 13.4668 70.8226 13.5169 71.1143 13.6172C71.4059 13.7129 71.6543 13.8678 71.8594 14.082C72.069 14.2962 72.2285 14.5742 72.3379 14.916C72.4473 15.2533 72.502 15.6657 72.502 16.1533V21H71.2305V16.1396C71.2305 15.7523 71.1735 15.4424 71.0596 15.21C70.9456 14.973 70.7793 14.8021 70.5605 14.6973C70.3418 14.5879 70.0729 14.5332 69.7539 14.5332C69.4395 14.5332 69.1523 14.5993 68.8926 14.7314C68.6374 14.8636 68.4163 15.0459 68.2295 15.2783C68.0472 15.5107 67.9036 15.7773 67.7988 16.0781C67.6986 16.3743 67.6484 16.6888 67.6484 17.0215ZM78.7568 19.7354V15.9277C78.7568 15.6361 78.6976 15.3831 78.5791 15.1689C78.4652 14.9502 78.292 14.7816 78.0596 14.6631C77.8271 14.5446 77.54 14.4854 77.1982 14.4854C76.8792 14.4854 76.599 14.54 76.3574 14.6494C76.1204 14.7588 75.9336 14.9023 75.7969 15.0801C75.6647 15.2578 75.5986 15.4492 75.5986 15.6543H74.334C74.334 15.39 74.4023 15.1279 74.5391 14.8682C74.6758 14.6084 74.8717 14.3737 75.127 14.1641C75.3867 13.9499 75.6966 13.7812 76.0566 13.6582C76.4212 13.5306 76.8268 13.4668 77.2734 13.4668C77.8112 13.4668 78.2852 13.5579 78.6953 13.7402C79.11 13.9225 79.4336 14.1982 79.666 14.5674C79.903 14.932 80.0215 15.39 80.0215 15.9414V19.3867C80.0215 19.6328 80.042 19.8949 80.083 20.1729C80.1286 20.4508 80.1947 20.6901 80.2812 20.8906V21H78.9619C78.8981 20.8542 78.848 20.6605 78.8115 20.4189C78.7751 20.1729 78.7568 19.945 78.7568 19.7354ZM78.9756 16.5156L78.9893 17.4043H77.7109C77.3509 17.4043 77.0296 17.4339 76.7471 17.4932C76.4645 17.5479 76.2275 17.6322 76.0361 17.7461C75.8447 17.86 75.6989 18.0036 75.5986 18.1768C75.4984 18.3454 75.4482 18.5436 75.4482 18.7715C75.4482 19.0039 75.5007 19.2158 75.6055 19.4072C75.7103 19.5986 75.8675 19.7513 76.0771 19.8652C76.2913 19.9746 76.5534 20.0293 76.8633 20.0293C77.2507 20.0293 77.5924 19.9473 77.8887 19.7832C78.1849 19.6191 78.4196 19.4186 78.5928 19.1816C78.7705 18.9447 78.8662 18.7145 78.8799 18.4912L79.4199 19.0996C79.388 19.291 79.3014 19.5029 79.1602 19.7354C79.0189 19.9678 78.8298 20.1911 78.5928 20.4053C78.3604 20.6149 78.0824 20.7904 77.7588 20.9316C77.4398 21.0684 77.0798 21.1367 76.6787 21.1367C76.1774 21.1367 75.7376 21.0387 75.3594 20.8428C74.9857 20.6468 74.694 20.3848 74.4844 20.0566C74.2793 19.724 74.1768 19.3525 74.1768 18.9424C74.1768 18.5459 74.2542 18.1973 74.4092 17.8965C74.5641 17.5911 74.7874 17.3382 75.0791 17.1377C75.3708 16.9326 75.7217 16.7777 76.1318 16.6729C76.542 16.568 77 16.5156 77.5059 16.5156H78.9756ZM76.8086 10.5L78.1279 12.5098H77.041L75.2773 10.5H76.8086ZM81.6758 17.3838V17.2266C81.6758 16.6934 81.7533 16.1989 81.9082 15.7432C82.0632 15.2829 82.2865 14.8841 82.5781 14.5469C82.8698 14.2051 83.223 13.9408 83.6377 13.7539C84.0524 13.5625 84.5173 13.4668 85.0322 13.4668C85.5518 13.4668 86.0189 13.5625 86.4336 13.7539C86.8529 13.9408 87.2083 14.2051 87.5 14.5469C87.7962 14.8841 88.0218 15.2829 88.1768 15.7432C88.3317 16.1989 88.4092 16.6934 88.4092 17.2266V17.3838C88.4092 17.917 88.3317 18.4115 88.1768 18.8672C88.0218 19.3229 87.7962 19.7217 87.5 20.0635C87.2083 20.4007 86.8551 20.665 86.4404 20.8564C86.0303 21.0433 85.5654 21.1367 85.0459 21.1367C84.5264 21.1367 84.0592 21.0433 83.6445 20.8564C83.2298 20.665 82.8743 20.4007 82.5781 20.0635C82.2865 19.7217 82.0632 19.3229 81.9082 18.8672C81.7533 18.4115 81.6758 17.917 81.6758 17.3838ZM82.9404 17.2266V17.3838C82.9404 17.7529 82.9837 18.1016 83.0703 18.4297C83.1569 18.7533 83.2868 19.0404 83.46 19.291C83.6377 19.5417 83.8587 19.7399 84.123 19.8857C84.3874 20.027 84.695 20.0977 85.0459 20.0977C85.3923 20.0977 85.6953 20.027 85.9551 19.8857C86.2194 19.7399 86.4382 19.5417 86.6113 19.291C86.7845 19.0404 86.9144 18.7533 87.001 18.4297C87.0921 18.1016 87.1377 17.7529 87.1377 17.3838V17.2266C87.1377 16.862 87.0921 16.5179 87.001 16.1943C86.9144 15.8662 86.7822 15.5768 86.6045 15.3262C86.4313 15.071 86.2126 14.8704 85.9482 14.7246C85.6885 14.5788 85.3831 14.5059 85.0322 14.5059C84.6859 14.5059 84.3805 14.5788 84.1162 14.7246C83.8564 14.8704 83.6377 15.071 83.46 15.3262C83.2868 15.5768 83.1569 15.8662 83.0703 16.1943C82.9837 16.5179 82.9404 16.862 82.9404 17.2266ZM91.499 11.0469L91.4102 18.1904H90.2686L90.1729 11.0469H91.499ZM90.1318 20.3643C90.1318 20.1592 90.1934 19.986 90.3164 19.8447C90.444 19.7035 90.6309 19.6328 90.877 19.6328C91.1185 19.6328 91.3031 19.7035 91.4307 19.8447C91.5628 19.986 91.6289 20.1592 91.6289 20.3643C91.6289 20.5602 91.5628 20.7288 91.4307 20.8701C91.3031 21.0114 91.1185 21.082 90.877 21.082C90.6309 21.082 90.444 21.0114 90.3164 20.8701C90.1934 20.7288 90.1318 20.5602 90.1318 20.3643Z" fill="#364152"/>
<path d="M51.6399 98.6943L116.308 98.6943V96.0865L51.6399 96.0865V98.6943Z" fill="white" stroke="#263238" stroke-linecap="round" stroke-linejoin="round"/>
<path d="M41.709 98.6943H98.0723V96.0865H41.709V98.6943Z" fill="white" stroke="#263238" stroke-linecap="round" stroke-linejoin="round"/>
<path d="M40.6185 91.4453H94.5421L88.7283 50.2793H34.8047L40.6185 91.4453Z" fill="white" stroke="#263238" stroke-linecap="round" stroke-linejoin="round"/>
<path d="M38.3851 91.4453H92.3087L86.4949 50.2793H32.5713L38.3851 91.4453Z" fill="#263238" stroke="#263238" stroke-linecap="round" stroke-linejoin="round"/>
<path d="M54.9072 72.3105L49.4961 98.6937H63.411L68.8221 72.3105H54.9072ZM64.3454 80.1301C64.3228 80.2408 64.2626 80.3403 64.1749 80.4116C64.0872 80.4828 63.9775 80.5215 63.8645 80.5211L55.9824 80.4429C55.9086 80.4419 55.836 80.4244 55.7699 80.3916C55.7037 80.3588 55.6458 80.3116 55.6004 80.2534C55.555 80.1952 55.5232 80.1276 55.5075 80.0555C55.4917 79.9834 55.4923 79.9087 55.5093 79.8369L56.2209 76.8772C56.2435 76.7664 56.3038 76.667 56.3915 76.5957C56.4791 76.5244 56.5888 76.4857 56.7018 76.4862L64.5878 76.5605C64.6613 76.562 64.7335 76.5799 64.7991 76.613C64.8648 76.646 64.9222 76.6933 64.9672 76.7514C65.0121 76.8095 65.0436 76.877 65.0591 76.9488C65.0746 77.0206 65.0739 77.095 65.057 77.1665L64.3454 80.1301Z" fill="white" stroke="#263238" stroke-linecap="round" stroke-linejoin="round"/>
<path d="M1 100.586L183 100.586V98.6936L1 98.6936V100.586Z" fill="#263238" stroke="#263238" stroke-linecap="round" stroke-linejoin="round"/>
</svg>
